<?xml version="1.0" encoding="UTF-8"?>
<svg viewBox="150 -50 1106 850" version="1.1" xmlns="http://www.w3.org/2000/svg" xmlns:xlink="http://www.w3.org/1999/xlink">
    <!-- Generator: Sketch 57.1 (83088) - https://sketch.com -->
    <title>Group 27</title>
    <desc>Created with Sketch.</desc>
    <defs>
        <path d="M11.9311816,16.2429943 C17.6365322,15.7790671 20.5468408,14.2560027 22.699644,9.69689456 C24.8524471,5.13778646 18.5125547,4.36689676 12.8072041,4.83082402 C7.10185344,5.29475127 3.81583987,7.01443493 2.03874167,11.3769238 C0.26164347,15.7394126 6.22583093,16.7069216 11.9311816,16.2429943 Z" id="path-1"></path>
    </defs>
    <g id="Page-1" stroke="none" stroke-width="1" fill="none" fill-rule="evenodd">
        <g id="Group-27">
            <rect id="Rectangle-Copy-36" fill="#FFDB49" x="0" y="-100" width="2000" height="2000"></rect>
            <g id="Group-Copy-3" style="mix-blend-mode: luminosity;" transform="translate(553.000000, 395.000000) scale(-1, 1) translate(-553.000000, -395.000000) translate(14.000000, 14.000000)">
                <g id="river-copy-2" transform="translate(362.000000, 458.000000)" stroke="#FFFFFF" stroke-dasharray="5" stroke-linecap="round" stroke-linejoin="round" stroke-width="2">
                    <path d="M66.6650432,254.537647 L303.130201,149.497553" id="Path-4-Copy-14"></path>
                    <path d="M335.397271,151.239447 L571.862428,46.1993529" id="Path-4-Copy-23"></path>
                    <path d="M91.359356,280.542789 L327.824513,175.502695" id="Path-4-Copy-24"></path>
                    <path d="M0,258.104274 L459.023697,54.3579692" id="Path-4-Copy-16"></path>
                    <path d="M145.260664,204.649262 L604.28436,0.902956298" id="Path-4-Copy-18"></path>
                    <path d="M233.143365,206.702523 L613,37.6297398" id="Path-4-Copy-15"></path>
                    <path d="M541.095972,50.5655527 L520.759479,58.8727506" id="Path-6-Copy-3"></path>
                    <path d="M486.623223,62.1233933 L466.28673,70.4305913" id="Path-6-Copy-14"></path>
                    <path d="M343.541469,179.14653 L323.204976,187.453728" id="Path-6-Copy-5"></path>
                    <path d="M359.520142,129.303342 L339.183649,137.61054" id="Path-6-Copy-6"></path>
                    <path d="M247.669431,130.748072 L227.332938,139.05527" id="Path-6-Copy-12"></path>
                    <path d="M507.686019,18.059126 L487.349526,26.3663239" id="Path-6-Copy-13"></path>
                    <path d="M178.670616,223.933162 L158.334123,232.24036" id="Path-6-Copy-10"></path>
                    <path d="M41.3992891,257.884319 L21.0627962,266.191517" id="Path-6-Copy-11"></path>
                </g>
                <g id="Group-22-Copy-2" transform="translate(130.000000, 335.000000)">
                    <polygon id="Rectangle" fill="#FFDB49" points="421.180402 209.44186 656.962733 314.283298 575.687371 350.7028 339.843685 245.59408"></polygon>
                    <path d="M104,350.7028 L340.111939,245.59408" id="Path-4-Copy" stroke="#FFFFFF" stroke-width="2" stroke-linecap="round" stroke-linejoin="round"></path>
                    <path d="M428,417 L577.40697,350.435518" id="Path-4-Copy-4" stroke="#FFFFFF" stroke-width="2" stroke-linecap="round" stroke-linejoin="round"></path>
                    <path d="M421.119048,209.709143 L567.704969,143.64482" id="Path-4-Copy-8" stroke="#FFFFFF" stroke-width="2" stroke-linecap="round" stroke-linejoin="round"></path>
                    <path d="M0,369 L340.111939,217.605434" id="Path-4-Copy-45" stroke="#FFFFFF" stroke-width="2" stroke-linecap="round" stroke-linejoin="round"></path>
                    <path d="M421.119048,180.064323 L821,0" id="Path-4-Copy-49" stroke="#FFFFFF" stroke-width="2" stroke-linecap="round" stroke-linejoin="round"></path>
                    <path d="M658.414079,314.550581 L805,248.486258" id="Path-4-Copy-9" stroke="#FFFFFF" stroke-width="2" stroke-linecap="round" stroke-linejoin="round"></path>
                    <path d="M341.295031,426.622462 L577.40697,321.513742" id="Path-4-Copy-46" stroke="#FFFFFF" stroke-width="2" stroke-linecap="round" stroke-linejoin="round"></path>
                    <path d="M658.414079,285.628805 L947,155" id="Path-4-Copy-50" stroke="#FFFFFF" stroke-width="2" stroke-linecap="round" stroke-linejoin="round"></path>
                    <path d="M421.119048,209.44186 L656.962733,314.283298" id="Line-6" stroke="#FFFFFF" stroke-width="2" stroke-linecap="round" stroke-linejoin="round"></path>
                    <path d="M339.843685,245.59408 L575.687371,350.435518" id="Line-6-Copy" stroke="#FFFFFF" stroke-width="2" stroke-linecap="round" stroke-linejoin="round"></path>
                </g>
                <path d="M788.375,650.45625 L788.4375,622.271875" id="Line-5-Copy-39" stroke="#FFFFFF" stroke-width="2" stroke-linecap="round" stroke-linejoin="round" stroke-dasharray="5"></path>
                <path d="M707.375,684.45625 L707.4375,656.271875" id="Line-5-Copy-40" stroke="#FFFFFF" stroke-width="2" stroke-linecap="round" stroke-linejoin="round" stroke-dasharray="5"></path>
                <path d="M551.375,545.442308 L551.5,517" id="Line-5-Copy-41" stroke="#FFFFFF" stroke-width="2" stroke-linecap="round" stroke-linejoin="round" stroke-dasharray="5"></path>
                <path d="M470.375,579.442308 L470.5,551" id="Line-5-Copy-42" stroke="#FFFFFF" stroke-width="2" stroke-linecap="round" stroke-linejoin="round" stroke-dasharray="5"></path>
                <path d="M470.4375,616.540816 L470.5,581" id="Line-5-Copy-43" stroke="#FFFFFF" stroke-width="2" stroke-linecap="round" stroke-linejoin="round" stroke-dasharray="5"></path>
                <polyline id="Path-4-Copy-27" stroke="#FFFFFF" stroke-width="2" stroke-linecap="round" stroke-linejoin="round" points="541 490.790087 304.926076 597 69 490.820554 69.3213822 490.790087 69.683933 455"></polyline>
                <path d="M542.403285,489 L586.827709,469" id="Path-4-Copy-34" stroke="#FFFFFF" stroke-width="2" stroke-linecap="round" stroke-linejoin="round" stroke-dasharray="5"></path>
                <path d="M306,422 L588,296" id="Path-4-Copy-35" stroke="#FFFFFF" stroke-width="2" stroke-linecap="round" stroke-linejoin="round"></path>
                <path d="M70,316 L304,422" id="Path-4-Copy-36" stroke="#FFFFFF" stroke-width="2" stroke-linecap="round" stroke-linejoin="round"></path>
                <path d="M165.361111,448 L177.638889,442" id="Path-4-Copy-48" stroke="#FFFFFF" stroke-width="2" stroke-linecap="round" stroke-linejoin="round" stroke-dasharray="5"></path>
                <path d="M69,490.783333 L97.6375,478" id="Path-4-Copy-47" stroke="#FFFFFF" stroke-width="2" stroke-linecap="round" stroke-linejoin="round" stroke-dasharray="5"></path>
                <path d="M70,316 L201.639344,257.363095" id="Path-4-Copy-38" stroke="#FFFFFF" stroke-width="2" stroke-linecap="round" stroke-linejoin="round" stroke-dasharray="5"></path>
                <path d="M274.18,287.569565 L417.64,222.358696" id="Path-4-Copy-39" stroke="#FFFFFF" stroke-width="2" stroke-linecap="round" stroke-linejoin="round" stroke-dasharray="5"></path>
                <polyline id="Path-4-Copy-40" stroke="#FFFFFF" stroke-width="2" stroke-linecap="round" stroke-linejoin="round" points="558 459 465 499.18342 493.447059 512"></polyline>
                <path d="M69.25,315.63 L69.5,279.37" id="Line-5-Copy-44" stroke="#FFFFFF" stroke-width="2" stroke-linecap="round" stroke-linejoin="round"></path>
                <path d="M588.25,294.63 L588.5,258.37" id="Line-5-Copy-45" stroke="#FFFFFF" stroke-width="2" stroke-linecap="round" stroke-linejoin="round"></path>
                <path d="M587.5,469.634615 L587.5,394.365385" id="Line-5-Copy-46" stroke="#FFFFFF" stroke-width="2" stroke-linecap="round" stroke-linejoin="round"></path>
                <path d="M69.5,457 L69.5,373" id="Line-5-Copy-47" stroke="#FFFFFF" stroke-width="2" stroke-linecap="round" stroke-linejoin="round" stroke-dasharray="5"></path>
                <path d="M69.5,282 L69.5,210" id="Line-5-Copy-48" stroke="#FFFFFF" stroke-width="2" stroke-linecap="round" stroke-linejoin="round" stroke-dasharray="5"></path>
                <path d="M205.5,256 L205.5,232.363636" id="Line-5-Copy-49" stroke="#FFFFFF" stroke-width="2" stroke-linecap="round" stroke-linejoin="round" stroke-dasharray="5"></path>
                <path d="M417.5,222 L417.5,150" id="Line-5-Copy-50" stroke="#FFFFFF" stroke-width="2" stroke-linecap="round" stroke-linejoin="round" stroke-dasharray="5"></path>
                <path d="M588.5,262 L588.5,193" id="Line-5-Copy-51" stroke="#FFFFFF" stroke-width="2" stroke-linecap="round" stroke-linejoin="round" stroke-dasharray="5"></path>
                <path d="M587.5,394 L587.5,345" id="Line-5-Copy-52" stroke="#FFFFFF" stroke-width="2" stroke-linecap="round" stroke-linejoin="round" stroke-dasharray="5"></path>
                <g id="stairs-up-copy-2" transform="translate(373.000000, 421.000000)" stroke="#FFFFFF" stroke-linecap="round" stroke-linejoin="round" stroke-width="2">
                    <path d="M0.363636364,107.64 L0.727272727,20.88" id="Line-5-Copy-4"></path>
                    <path d="M0.727272727,0 L0.727272727,20.88" id="Line-5-Copy-4" stroke-dasharray="5"></path>
                    <path d="M46.9090909,87.48 L47,39" id="Line-5-Copy-5" stroke-dasharray="5"></path>
                    <path d="M46.9090909,87.48 L47.2727273,68.4" id="Line-5-Copy-16"></path>
                    <path d="M46.9090909,88.56 L0.363636364,107.64" id="Path-6"></path>
                    <path d="M46.9090909,74.16 L0.363636364,93.24" id="Path-6-Copy" stroke-dasharray="5"></path>
                    <path d="M32.3636364,59.76 L0.727272727,72.72" id="Path-6-Copy-9" stroke-dasharray="5"></path>
                    <path d="M17.8181818,45.36 L0.727272727,52.56" id="Path-6-Copy-8" stroke-dasharray="5"></path>
                    <path d="M32.3636364,59.76 L32.3636364,66.5433348 L47.0909091,72.72" id="Path-12" stroke-dasharray="5"></path>
                    <path d="M17.4545455,46.08 L17.4545455,52.8633348 L32.1818182,59.04" id="Path-12-Copy" stroke-dasharray="5"></path>
                    <path d="M2.90909091,32.4 L2.90909091,39.1833348 L17.6363636,45.36" id="Path-12-Copy-2" stroke-dasharray="5"></path>
                    <path d="M3.27272727,30.96 L0.727272727,31.68" id="Path-6-Copy-7" stroke-dasharray="5"></path>
                </g>
                <path d="M264.25,478.648438 L264.375,434.175781" id="Line-5-Copy-53" stroke="#FFFFFF" stroke-width="2" stroke-linecap="round" stroke-linejoin="round" stroke-dasharray="5"></path>
                <path d="M401.362403,387 L587.637597,469.63913" id="Line-6-Copy-24" stroke="#FFFFFF" stroke-width="2" stroke-linecap="round" stroke-linejoin="round" stroke-dasharray="5"></path>
                <path d="M418,222 L588,296" id="Line-6-Copy-25" stroke="#FFFFFF" stroke-width="2" stroke-linecap="round" stroke-linejoin="round"></path>
                <path d="M342.36194,320.180328 L438.63806,363.459016" id="Line-6-Copy-26" stroke="#FFFFFF" stroke-width="2" stroke-linecap="round" stroke-linejoin="round"></path>
                <path d="M389.364865,300.367647 L442.635135,324.632353" id="Line-6-Copy-27" stroke="#FFFFFF" stroke-width="2" stroke-linecap="round" stroke-linejoin="round"></path>
                <path d="M202.361314,257.179167 L300.638686,299.4625" id="Line-6-Copy-28" stroke="#FFFFFF" stroke-width="2" stroke-linecap="round" stroke-linejoin="round"></path>
                <path d="M436,344 L415.362069,351" id="Path-6-Copy-26" stroke="#FFFFFF" stroke-width="2" stroke-linecap="round" stroke-linejoin="round" stroke-dasharray="5"></path>
                <path d="M420,328 L389.360465,341" id="Path-6-Copy-27" stroke="#FFFFFF" stroke-width="2" stroke-linecap="round" stroke-linejoin="round" stroke-dasharray="5"></path>
                <path d="M407,314 L366.37963,331" id="Path-6-Copy-28" stroke="#FFFFFF" stroke-width="2" stroke-linecap="round" stroke-linejoin="round" stroke-dasharray="5"></path>
                <path d="M388,300 L343,319" id="Path-6-Copy-29" stroke="#FFFFFF" stroke-width="2" stroke-linecap="round" stroke-linejoin="round"></path>
                <path d="M421,328 L421,334.804271 L436,341" id="Path-12-Copy-8" stroke="#FFFFFF" stroke-width="2" stroke-linecap="round" stroke-linejoin="round" stroke-dasharray="5"></path>
                <path d="M436,344 L436,350.804271 L451,357" id="Path-12-Copy-9" stroke="#FFFFFF" stroke-width="2" stroke-linecap="round" stroke-linejoin="round" stroke-dasharray="5"></path>
                <path d="M406,314 L406,320.804271 L421,327" id="Path-12-Copy-10" stroke="#FFFFFF" stroke-width="2" stroke-linecap="round" stroke-linejoin="round" stroke-dasharray="5"></path>
                <path d="M391,302 L391,308.804271 L406,315" id="Path-12-Copy-11" stroke="#FFFFFF" stroke-width="2" stroke-linecap="round" stroke-linejoin="round" stroke-dasharray="5"></path>
                <path d="M316.3625,267.180556 L344.6375,279.458333" id="Line-6-Copy-29" stroke="#FFFFFF" stroke-width="2" stroke-linecap="round" stroke-linejoin="round"></path>
                <path d="M262.362745,479.362319 L372.637255,528.637681" id="Line-6-Copy-30" stroke="#FFFFFF" stroke-width="2" stroke-linecap="round" stroke-linejoin="round"></path>
                <g id="table-copy-7" transform="translate(229.000000, 493.000000)" stroke="#FFFFFF" stroke-linecap="round" stroke-linejoin="round" stroke-width="2">
                    <polygon id="Path-5" fill="#DEDEDE" points="1.09539474 12.864066 30.0717606 0 109.904605 35.0174216 80.9282394 47.8571429"></polygon>
                    <path d="M0.730263158,13.1428571 L0.730263158,35.4285714" id="Line-7" stroke-dasharray="5"></path>
                    <path d="M81.0592105,47.4285714 L81.0592105,69.7142857" id="Line-7-Copy" stroke-dasharray="5"></path>
                    <path d="M110.269737,35.2857143 L110.269737,57.5714286" id="Line-7-Copy-2" stroke-dasharray="5"></path>
                </g>
                <g id="table-copy-8" transform="translate(167.500000, 490.000000) scale(-1, 1) translate(-167.500000, -490.000000) translate(140.000000, 472.000000)" stroke="#FFFFFF" stroke-linecap="round" stroke-linejoin="round" stroke-width="2">
                    <polygon id="Path-5" fill="#DEDEDE" points="0 6.71454874 14.4540189 0 54.2763158 18.2777501 39.8222969 24.9795918"></polygon>
                    <path d="M0.361842105,6.75918367 L0.361842105,18.2204082" id="Line-7" stroke-dasharray="5"></path>
                    <path d="M40.1644737,24.3918367 L40.1644737,35.8530612" id="Line-7-Copy" stroke-dasharray="5"></path>
                    <path d="M54.6381579,18.5142857 L54.6381579,29.9755102" id="Line-7-Copy-2" stroke-dasharray="5"></path>
                </g>
                <g id="kitchen-copy-2" transform="translate(416.000000, 385.000000)">
                    <polygon id="Path-5" stroke="#FFFFFF" stroke-width="2" fill="#DEDEDE" stroke-linecap="round" stroke-linejoin="round" points="0.365131579 12.864066 30.0717606 0 110.634868 35.0174216 80.9282394 47.8571429"></polygon>
                    <polygon id="Path-7" stroke="#FFFFFF" stroke-width="2" fill="#BCBCBC" stroke-linecap="round" stroke-linejoin="round" points="0.730263158 35.4285714 81.0592105 69.7142857 110.269737 57.5714286 110.269737 35.4285714 81.0592105 47.8571429 0.730263158 13.1428571"></polygon>
                    <g id="sink" transform="translate(54.123438, 24.609520) rotate(-3.000000) translate(-54.123438, -24.609520) translate(41.623438, 14.109520)">
                        <mask id="mask-2" fill="white">
                            <use xlink:href="#path-1"></use>
                        </mask>
                        <use id="Oval" stroke="#FFFFFF" stroke-width="2" stroke-linecap="round" stroke-linejoin="round" stroke-dasharray="5" transform="translate(12.424586, 10.530990) rotate(24.000000) translate(-12.424586, -10.530990) " xlink:href="#path-1"></use>
                        <path d="M12.6614447,20.8512892 C18.3667953,20.387362 21.277104,18.8642976 23.4299071,14.3051895 C25.5827102,9.74608139 19.2428178,8.97519169 13.5374672,9.43911895 C7.8321166,9.9030462 4.54610303,11.6227299 2.76900483,15.9852187 C0.991906628,20.3477075 6.95609409,21.3152165 12.6614447,20.8512892 Z" id="Oval-Copy-5" stroke="#FFFFFF" stroke-width="2" stroke-linecap="round" stroke-linejoin="round" stroke-dasharray="5" mask="url(#mask-2)" transform="translate(13.154850, 15.139285) rotate(24.000000) translate(-13.154850, -15.139285) "></path>
                    </g>
                    <path d="M62.0847592,17.9956098 C62.1362956,17.1913021 62.1201958,-3.75123133 58.4432896,9.54956263" id="Path-8" stroke="#FFFFFF" stroke-width="2" stroke-linecap="round" stroke-linejoin="round"></path>
                    <path d="M81.0592105,47.8571429 L81.0592105,69.4285714" id="Line-7-Copy" stroke="#FFFFFF" stroke-width="2" stroke-linecap="round" stroke-linejoin="round"></path>
                </g>
                <g id="Group-24-Copy-2" transform="translate(190.000000, 284.500000) scale(-1, 1) translate(-190.000000, -284.500000) translate(126.000000, 246.000000)" stroke="#FFFFFF" stroke-linecap="round" stroke-linejoin="round" stroke-width="2">
                    <g id="Group-29">
                        <polygon id="Path-5" fill="#DEDEDE" points="-3.01473132e-13 21.2737744 46.5768944 -3.16531523e-14 127.268571 35.9512195 80.691677 57.2"></polygon>
                        <polygon id="Path-7" fill="#BCBCBC" points="0.365714286 34.9066667 80.8228571 70.1066667 127.268571 48.9123748 127.268571 35.7123748 80.8228571 57.2 0.365714286 21.56"></polygon>
                        <path d="M80.8228571,57.2 L80.8228571,76.4133333" id="Line-7-Copy" stroke-dasharray="5"></path>
                        <path d="M0.365714286,21.2666667 L0.365714286,40.48" id="Line-7-Copy-3" stroke-dasharray="5"></path>
                        <path d="M127.268571,35.9333333 L127.268571,55.1466667" id="Line-7-Copy-4" stroke-dasharray="5"></path>
                    </g>
                    <polygon id="Rectangle-Copy-40" fill="#BCBCBC" points="10.9714286 21.1222984 26.5493496 13.9333333 33.9887586 16.8166494 18.4108376 24.0056144"></polygon>
                    <polygon id="Rectangle-Copy-41" fill="#BCBCBC" points="30.72 12.3222984 46.297921 5.13333333 53.73733 8.01664935 38.1594091 15.2056144"></polygon>
                    <path d="M29.7142857,33.2566667 L74.0465911,12.9871072" id="Path-4-Copy-19" stroke-dasharray="5"></path>
                    <path d="M29.7142857,35.4566667 L29.9327474,46.9338674" id="Path-4-Copy-22" stroke-dasharray="5"></path>
                    <path d="M18.0114286,29.59 L65.0057143,8.10333333" id="Path-4-Copy-20"></path>
                    <path d="M18.0114286,29.59 L18.2857143,42.5333333" id="Path-4-Copy-21"></path>
                </g>
                <g id="Group-29-Copy-3" transform="translate(472.000000, 264.500000) scale(-1, 1) translate(-472.000000, -264.500000) translate(421.000000, 234.000000)" stroke="#FFFFFF" stroke-linecap="round" stroke-linejoin="round" stroke-width="2">
                    <polygon id="Path-5" fill="#DEDEDE" points="-2.40236402e-13 16.8532499 37.1159627 -2.50758739e-14 101.417143 28.4808362 64.3011801 45.3142857"></polygon>
                    <polygon id="Path-7" fill="#BCBCBC" points="0.291428571 27.6533333 64.4057143 55.5390476 101.417143 38.7487644 101.417143 28.2916216 64.4057143 45.3142857 0.291428571 17.08"></polygon>
                    <path d="M64.4057143,45.3142857 L64.4057143,60.5352381" id="Line-7-Copy" stroke-dasharray="5"></path>
                    <path d="M0.291428571,16.847619 L0.291428571,32.0685714" id="Line-7-Copy-3"></path>
                    <path d="M101.417143,28.4666667 L101.417143,43.687619" id="Line-7-Copy-4"></path>
                </g>
                <path d="M469,257.82 L506.561538,240.24" id="Path-4-Copy-41" stroke="#FFFFFF" stroke-width="2" stroke-linecap="round" stroke-linejoin="round" transform="translate(488.000000, 249.000000) scale(-1, 1) translate(-488.000000, -249.000000) "></path>
                <path d="M506.5,258.405263 L506.6875,268.623684" id="Path-4-Copy-42" stroke="#FFFFFF" stroke-width="2" stroke-linecap="round" stroke-linejoin="round" transform="translate(506.500000, 263.500000) scale(-1, 1) translate(-506.500000, -263.500000) "></path>
                <g id="wall-art-copy-2" transform="translate(285.000000, 427.000000)" fill="#A4A4A4">
                    <polygon id="Rectangle" points="-1.77635684e-14 0 42.0044184 19.2296512 42.0044184 62.4505814 -1.77635684e-14 43.2209302"></polygon>
                    <polygon id="Rectangle-Copy-17" points="48.5714286 17.5813953 57.8571429 21.7835994 57.8571429 30.4022173 48.5714286 26.2000132"></polygon>
                    <polygon id="Rectangle-Copy-18" points="60.7142857 30.7674419 70 34.9696459 70 43.5882638 60.7142857 39.3860597"></polygon>
                    <polygon id="Rectangle-Copy-19" points="47.1428571 32.2325581 56.4285714 36.4347622 56.4285714 45.0533801 47.1428571 40.851176"></polygon>
                </g>
                <polygon id="Rectangle-Copy-75" fill="#A4A4A4" points="87 389.200908 112 378 112 396.799092 87 408"></polygon>
                <polygon id="Rectangle-Copy-76" fill="#A4A4A4" points="123 374.200908 148 363 148 381.799092 123 393"></polygon>
                <path d="M195,521.1875 L167,532.625" id="Path-6-Copy-30" stroke="#FFFFFF" stroke-width="2" stroke-linecap="round" stroke-linejoin="round"></path>
                <g id="sofa-copy-2" transform="translate(99.000000, 420.000000)" stroke="#FFFFFF" stroke-linecap="round" stroke-linejoin="round" stroke-width="2">
                    <polygon id="Path-10" fill="#DEDEDE" points="0.193710692 24.8777473 56.6603774 -5.31946282e-15 56.6603774 21.7129121 77 31.1414835 77 41.3392857 20.5333333 65.9546703 0 57.2367216"></polygon>
                    <polygon id="Path-7" fill="#BCBCBC" transform="translate(38.500000, 48.548077) scale(-1, 1) translate(-38.500000, -48.548077) " points="0 41.3392857 56.4666667 65.9546703 77 57.2367216 77 47.1414835 56.4666667 56.0645604 0 31.1414835"></polygon>
                    <path d="M56.6603774,21.7129121 L0,47.1414835" id="Path-11" stroke-dasharray="5"></path>
                </g>
                <path d="M216.25,457.639706 L216.375,409.180147" id="Line-5-Copy-54" stroke="#FFFFFF" stroke-width="2" stroke-linecap="round" stroke-linejoin="round" stroke-dasharray="5"></path>
                <path d="M179.25,440.633721 L179.4375,378.274709" id="Line-5-Copy-55" stroke="#FFFFFF" stroke-width="2" stroke-linecap="round" stroke-linejoin="round" stroke-dasharray="5"></path>
                <path d="M179.37,442.369565 L215.63,458.630435" id="Line-6-Copy-31" stroke="#FFFFFF" stroke-width="2" stroke-linecap="round" stroke-linejoin="round"></path>
                <path d="M235,449 L215,457.625" id="Path-6-Copy-31" stroke="#FFFFFF" stroke-width="2" stroke-linecap="round" stroke-linejoin="round" stroke-dasharray="5"></path>
                <polygon id="Rectangle-Copy-77" fill="#A4A4A4" points="193 391 206 396.47454 206 428 193 422.52546"></polygon>
                <g id="Group-10-Copy-2" transform="translate(216.000000, 476.000000)" fill="#8D8D8D" stroke="#FFE88B" stroke-linecap="round" stroke-linejoin="round" stroke-width="2">
                    <path d="M27.2040303,9.22537489 L6.72677137,21.9084975 L2.84931334,15.757819 L23.3265722,3.07469639 L28.2907562,1.12345688e-11 L29.8417394,2.4602714 L24.8775555,5.53496779 L27.2040303,9.22537489 Z" id="Combined-Shape"></path>
                    <polygon id="Rectangle-Copy-26" transform="translate(11.137423, 9.227861) rotate(-12.000000) translate(-11.137423, -9.227861) " points="4.54278612 2.68611191 17.7085127 2.70965925 17.73206 15.7696094 4.56633346 15.7460621"></polygon>
                    <path d="M20.1325566,16.4806079 L19.919581,18.4906079 L27.4817627,38.7716905 L21.6173308,41.6055646 L18.832581,34.1386079 L19.7771269,64.9099942 L12.1367204,65.2137349 L11.586,47.2996079 L8.67238543,65.5389119 L1.38705047e-10,64.1774163 L4.579,35.5196079 L2.57158095,16.4806079 L20.1325566,16.4806079 Z" id="Combined-Shape"></path>
                </g>
                <g id="Group-11-Copy-2" transform="translate(254.000000, 493.000000)" fill="#8D8D8D" stroke="#FFE88B" stroke-linecap="round" stroke-linejoin="round" stroke-width="2">
                    <polygon id="Combined-Shape-Copy-4" points="9.07328812 16.2304153 15.9931781 16.137867 14.8517119 32.0435785 7.93182194 32.1361268"></polygon>
                    <polygon id="Rectangle-Copy-29" transform="translate(8.337500, 8.411378) rotate(-16.000000) translate(-8.337500, -8.411378) " points="2.1853195 2.21288932 14.5186169 2.18395294 14.4896805 14.6098661 2.15638312 14.6388025"></polygon>
                    <path d="M8.44685068,61.9933591 L0.227626482,61.7027129 L1.36,28.8435378 L0,15.6677724 L15.583,15.6675378 L15.5849642,15.6665378 L15.585,15.6675378 L16.4484684,15.6677724 L16.384,16.2895378 L29,26.1141984 L25.7888109,31.3748801 L15.642,23.4725378 L14.429,35.2255378 L22.7576035,60.0809917 L15.9978419,62.4776833 L9.847,44.1215378 L9.062,44.1215378 L8.44685068,61.9933591 Z" id="Combined-Shape-Copy-5"></path>
                </g>
                <g id="Group-12-Copy-2" transform="translate(304.000000, 506.000000)" fill="#8D8D8D" stroke="#FFE88B" stroke-linecap="round" stroke-linejoin="round" stroke-width="2">
                    <path d="M3.88229586,4.80919753 L20.7836709,14.9021975 L20.8901381,14.5454545 L37.0919636,14.5454545 L37.05624,14.8444545 L37.342078,14.7426202 L44.8962766,37.435066 L38.2480991,39.8028344 L35.26824,30.8534545 L36.3579581,63.1082551 L27.925598,63.4128325 L27.33424,45.8944545 L26.7426001,63.4128325 L18.31024,63.1082551 L19.38224,31.3264545 L18.3976437,22.9692268 L18.6716709,22.0391975 L0.366670862,11.1075641 L3.88229586,4.80919753 Z" id="Combined-Shape"></path>
                    <polygon id="Rectangle-Copy-30" transform="translate(27.714200, 7.272727) rotate(5.000000) translate(-27.714200, -7.272727) " points="21.3655545 0.71005415 34.0251062 0.747793029 34.0628451 13.8354004 21.4032933 13.7976615"></polygon>
                </g>
                <g id="Group-13-Copy-2" transform="translate(426.000000, 382.000000)" fill="#8D8D8D" stroke="#FFE88B" stroke-linecap="round" stroke-linejoin="round" stroke-width="2">
                    <path d="M25.7142857,13.9770115 L25.6738571,14.3050115 L25.8285017,14.2403783 L35.301738,36.5864272 L28.5388452,39.4607711 L23.9328571,28.5960115 L23.7858571,29.8040115 L24.9473249,63.0980052 L16.136369,63.4060835 L15.5178571,45.6900115 L14.9002569,63.4060835 L6.08930108,63.0980052 L7.20985714,30.9520115 L5.14285714,13.9770115 L25.7142857,13.9770115 Z" id="Combined-Shape-Copy-2"></path>
                    <rect id="Rectangle-Copy-25" x="9.30323454" y="0" width="13.2244898" height="13.2413793"></rect>
                    <polygon id="Rectangle" transform="translate(13.208358, 22.436782) rotate(116.000000) translate(-13.208358, -22.436782) " points="9.53719842 10.3132059 16.8917171 10.309509 16.8795171 34.5603573 9.52499839 34.5640543"></polygon>
                </g>
                <g id="Group-14-Copy-2" transform="translate(563.500000, 449.500000) scale(-1, 1) translate(-563.500000, -449.500000) translate(546.000000, 420.000000)" fill="#8D8D8D" stroke="#FFE88B" stroke-linecap="round" stroke-linejoin="round" stroke-width="2">
                    <polygon id="Rectangle" transform="translate(9.094697, 26.258242) rotate(16.000000) translate(-9.094697, -26.258242) " points="5.85262351 15.5605299 12.3478711 15.5571661 12.3367704 36.9559536 5.84152287 36.9593174"></polygon>
                    <rect id="Rectangle-Copy-31" x="12.3958333" y="3.64197531" width="11.6666667" height="11.654321"></rect>
                    <path d="M29.0389878,-3.0933478e-11 L35,2.64289729 L26.241755,22.2318442 L26.162,22.196 L25.289,29.325 L26.3210132,58.7278757 L18.4956148,59 L17.898,41.98 L16.772,41.98 L6.71176423,58.6539701 L-3.52038398e-11,54.6380268 L11.259,35.978 L8.7317922,15.3394984 L22.18,15.339 L29.0389878,-3.0933478e-11 Z" id="Combined-Shape-Copy-7"></path>
                </g>
                <g id="Group-16-Copy-2" transform="translate(97.000000, 417.000000)" fill="#8D8D8D" stroke="#FFE88B" stroke-linecap="round" stroke-linejoin="round" stroke-width="2">
                    <path d="M46.6370224,3.42755929 L50.1021243,9.02534824 L32.245905,20.2875593 L34.024905,31.2565593 L56.3172078,34.4356402 L56.159905,35.0705593 L56.7706377,34.896211 L62.4467671,54.5123484 L54.8811422,56.6880862 L50.503905,41.5625593 L43.571905,40.5735593 L47.314905,42.0805593 L47.7469225,41.9575232 L47.844905,42.2945593 L47.9153885,42.3226707 L47.878905,42.4125593 L53.4230519,61.5736606 L45.857427,63.7493984 L41.384905,48.2935593 L26.553905,42.3205593 L26.0258944,42.4644819 L18.994905,23.7505593 L4.10000518,35.1947095 L0.170905044,29.878765 L16.564905,17.2825593 L16.4235335,16.9049445 L31.0563716,12.9570469 L31.099905,13.2275593 L46.6370224,3.42755929 Z" id="Combined-Shape"></path>
                    <polygon id="Rectangle-Copy-33" transform="translate(22.300261, 8.158861) rotate(-18.000000) translate(-22.300261, -8.158861) " points="16.1642702 1.98798807 28.4615948 1.96264463 28.4362513 14.3297337 16.1389268 14.3550771"></polygon>
                </g>
                <path d="M336.679453,497.849542 C336.242453,497.320542 335.966453,496.607542 335.966453,495.733542 C335.966453,493.134542 338.956453,492.743542 338.956453,491.593542 C338.956453,491.087542 338.588453,490.696542 337.599453,490.696542 C336.725453,490.696542 335.828453,491.156542 335.184453,491.892542 L332.976453,489.362542 C334.241453,487.936542 336.150453,487.200542 338.036453,487.200542 C341.072453,487.200542 342.958453,488.672542 342.958453,490.880542 C342.958453,494.169542 339.393453,494.422542 339.393453,496.147542 C339.393453,496.538542 339.554453,496.883542 339.738453,497.067542 L336.679453,497.849542 Z M338.082453,503.047542 C336.909453,503.047542 335.920453,502.058542 335.920453,500.885542 C335.920453,499.712542 336.909453,498.723542 338.082453,498.723542 C339.255453,498.723542 340.244453,499.712542 340.244453,500.885542 C340.244453,502.058542 339.255453,503.047542 338.082453,503.047542 Z" id="?" fill="#6B8160" fill-rule="nonzero" transform="translate(337.967453, 495.124042) scale(-1, 1) rotate(-22.000000) translate(-337.967453, -495.124042) "></path>
                <text id="…" transform="translate(337.022175, 334.783335) rotate(1.000000) translate(-337.022175, -334.783335) " font-family="ProximaNova-Extrabld, Proxima Nova" font-size="23" font-weight="600" letter-spacing="3.06666667" fill="#6B8160">
                    <tspan x="329.043122" y="341.783335">…</tspan>
                </text>
                <path d="M132.638796,410.500818 L126.126796,410.500818 L126.126796,408.692818 L129.230796,404.916818 L126.126796,404.916818 L126.126796,402.772818 L132.574796,402.772818 L132.574796,404.516818 L129.406796,408.372818 L132.638796,408.372818 L132.638796,410.500818 Z M141.366796,410.500818 L134.854796,410.500818 L134.854796,408.692818 L137.958796,404.916818 L134.854796,404.916818 L134.854796,402.772818 L141.302796,402.772818 L141.302796,404.516818 L138.134796,408.372818 L141.366796,408.372818 L141.366796,410.500818 Z M150.094796,410.500818 L143.582796,410.500818 L143.582796,408.692818 L146.686796,404.916818 L143.582796,404.916818 L143.582796,402.772818 L150.030796,402.772818 L150.030796,404.516818 L146.862796,408.372818 L150.094796,408.372818 L150.094796,410.500818 Z" id="zzz" fill="#6B8160" fill-rule="nonzero" transform="translate(138.110796, 406.636818) scale(-1, 1) rotate(44.000000) translate(-138.110796, -406.636818) "></path>
                <path d="M225.773321,468.234042 L222.622321,468.234042 L222.070321,458.252042 L226.302321,458.252042 L225.773321,468.234042 Z M224.186321,473.846042 C223.013321,473.846042 222.047321,472.857042 222.047321,471.707042 C222.047321,470.534042 223.013321,469.545042 224.186321,469.545042 C225.359321,469.545042 226.348321,470.534042 226.348321,471.707042 C226.348321,472.857042 225.359321,473.846042 224.186321,473.846042 Z" id="!" fill="#6B8160" fill-rule="nonzero" transform="translate(224.197821, 466.049042) rotate(-9.000000) translate(-224.197821, -466.049042) "></path>
                <path d="M0,521.740891 L39.9456522,504 L150,552.292683 L110.054348,570 L0,521.740891 Z" id="Path-5-Copy-6" stroke="#FFFFFF" stroke-width="2" stroke-linecap="round" stroke-linejoin="round" stroke-dasharray="5"></path>
                <path d="M123,577.740891 L162.945652,560 L273,608.292683 L233.054348,626 L123,577.740891 Z" id="Path-5-Copy-7" stroke="#FFFFFF" stroke-width="2" stroke-linecap="round" stroke-linejoin="round" stroke-dasharray="5"></path>
                <g id="Group-17-Copy-4" transform="translate(38.000000, 497.000000)" stroke="#FFFFFF" stroke-linecap="round" stroke-linejoin="round" stroke-width="2">
                    <path d="M6.52615055,11.6657064 C4.7415991,9.54205912 -0.103009523,4.66361353 2.0135613,1.6451354 C3.14943844,0.0252414371 6.11701578,0.645409984 6.61506314,2.56452115 C7.38746008,5.54077543 7.72302687,8.61523617 8.27700873,11.6405937" id="Path-13" fill="#BCBCBC" transform="translate(4.882599, 6.190890) rotate(-11.000000) translate(-4.882599, -6.190890) "></path>
                    <path d="M8.25,10.873647 C8.25,2.56012654 18.8032885,3.80327157 13.5186237,10.8974902 C11.1374275,14.094046 11.7458033,13.3676819 8.68436283,15.2937931" id="Path-14" fill="#BCBCBC"></path>
                    <path d="M7.875,20.8615795 L7.875,5.3563515" id="Line-8" stroke-dasharray="5"></path>
                </g>
                <g id="Group-17-Copy-5" transform="translate(120.500000, 546.000000) scale(-1, 1) translate(-120.500000, -546.000000) translate(113.000000, 535.000000)" stroke="#FFFFFF" stroke-linecap="round" stroke-linejoin="round" stroke-width="2">
                    <path d="M6.52615055,11.6657064 C4.7415991,9.54205912 -0.103009523,4.66361353 2.0135613,1.6451354 C3.14943844,0.0252414371 6.11701578,0.645409984 6.61506314,2.56452115 C7.38746008,5.54077543 7.72302687,8.61523617 8.27700873,11.6405937" id="Path-13" fill="#BCBCBC" transform="translate(4.882599, 6.190890) rotate(-11.000000) translate(-4.882599, -6.190890) "></path>
                    <path d="M8.25,10.873647 C8.25,2.56012654 18.8032885,3.80327157 13.5186237,10.8974902 C11.1374275,14.094046 11.7458033,13.3676819 8.68436283,15.2937931" id="Path-14" fill="#BCBCBC"></path>
                    <path d="M7.875,20.8615795 L7.875,5.3563515" id="Line-8" stroke-dasharray="5"></path>
                </g>
                <g id="Group-20-Copy-2" transform="translate(18.000000, 488.000000)" stroke="#FFFFFF" stroke-linecap="round" stroke-linejoin="round" stroke-width="2">
                    <path d="M13.8560304,32.2228226 C12.1100152,30.0647554 7.36369782,25.112555 9.47405807,22.0119647 C10.6066022,20.3480045 13.5308622,20.9607751 14.0086935,22.9189414 C14.7497386,25.9557643 15.0589782,29.0960898 15.5841205,32.184664" id="Path-13-Copy-3" fill="#BCBCBC" transform="translate(12.263673, 26.635616) scale(-1, 1) rotate(-11.000000) translate(-12.263673, -26.635616) "></path>
                    <path d="M2.2831887,32.1750082 C2.2831887,23.6653871 12.683531,24.9378556 7.47545554,32.1994137 C5.12876946,35.4713704 5.72832815,34.7278727 2.71125642,36.6994173" id="Path-14-Copy-3" fill="#BCBCBC" transform="translate(5.609276, 31.481235) scale(-1, 1) translate(-5.609276, -31.481235) "></path>
                    <path d="M16.2335157,10.5984199 C15.3920236,10.3934058 14.3408484,10.8413331 11.6360108,8.75634015 C8.57665965,6.39807434 5.36822727,-3.24775845 11.8338905,1.12128965 C13.5353986,2.27105116 14.3390269,4.38989528 15.5915951,6.0241981" id="Path-15-Copy" fill="#BCBCBC" transform="translate(12.155857, 5.299210) scale(-1, 1) translate(-12.155857, -5.299210) "></path>
                    <path d="M2.22102514,13.8010528 C2.21732632,12.3171352 4.80659793,3.92009231 6.72547609,9.82579203 C7.4636395,12.0976254 6.84105287,14.1393161 4.05481933,19.9571914" id="Path-16-Copy" fill="#BCBCBC" transform="translate(4.616233, 13.851718) scale(-1, 1) rotate(18.000000) translate(-4.616233, -13.851718) "></path>
                    <path d="M15.0138859,21.4841708 C8.08027252,17.4283748 4.68253634,4.4199371 15.5875365,16.4919482" id="Path-17-Copy" fill="#BCBCBC" transform="translate(12.078749, 16.481878) scale(-1, 1) translate(-12.078749, -16.481878) "></path>
                    <path d="M7.82666696,40.1621739 L9.05339608,6.26140398" id="Line-8-Copy-3" stroke-dasharray="5" transform="translate(8.565797, 23.281235) scale(-1, 1) translate(-8.565797, -23.281235) "></path>
                </g>
                <g id="Group-9-Copy-2" transform="translate(53.000000, 509.000000)" stroke="#FFFFFF" stroke-linecap="round" stroke-linejoin="round" stroke-width="2">
                    <path d="M13.88789,24.3744415 C12.1191169,22.3334528 7.32237558,17.6406614 9.38880386,14.7660816 C10.4977715,13.2234119 13.4225864,13.8333273 13.9237588,15.6714145 C14.7010023,18.5220128 15.0487857,21.4640472 15.6112992,24.3603636" id="Path-13-Copy-4" fill="#BCBCBC" transform="translate(12.246308, 19.131491) scale(-1, 1) rotate(-11.000000) translate(-12.246308, -19.131491) "></path>
                    <path d="M2.2831887,24.299597 C2.2831887,16.3584871 12.683531,17.5459445 7.47545554,24.322372 C5.12876946,27.3757356 5.72832815,26.6819096 2.71125642,28.5217391" id="Path-14-Copy-4" fill="#BCBCBC" transform="translate(5.609276, 23.652174) scale(-1, 1) translate(-5.609276, -23.652174) "></path>
                    <path d="M2.19147344,7.20713398 C2.21693011,5.81295992 4.95455405,-2.1275014 6.74523569,3.38364999 C7.43408384,5.50370661 6.7753817,7.43424518 3.89269275,12.9552613" id="Path-16-Copy-2" fill="#BCBCBC" transform="translate(4.593871, 7.207574) scale(-1, 1) rotate(18.000000) translate(-4.593871, -7.207574) "></path>
                    <path d="M15.0138859,14.3229938 C8.08027252,10.5381576 4.68253634,-1.60121164 15.5875365,9.66429182" id="Path-17-Copy-2" fill="#BCBCBC" transform="translate(12.078749, 9.654895) scale(-1, 1) translate(-12.078749, -9.654895) "></path>
                    <path d="M7.82666696,31.7531557 L9.05339608,0.11723041" id="Line-8-Copy-4" stroke-dasharray="5" transform="translate(8.565797, 16.000000) scale(-1, 1) translate(-8.565797, -16.000000) "></path>
                </g>
                <g id="Group-18-Copy-2" transform="translate(74.000000, 518.000000)" stroke="#FFFFFF" stroke-linecap="round" stroke-linejoin="round" stroke-width="2">
                    <path d="M11.7471,12 C9.97247566,9.82528226 5.14986233,4.83368068 7.28559659,1.71661525 C8.43175796,0.0438135091 11.3990932,0.665227511 11.8869591,2.63671799 C12.643566,5.69420475 12.9623197,8.85516141 13.5,11.9643831" id="Path-13-Copy" fill="#BCBCBC" transform="translate(10.125000, 6.375000) scale(-1, 1) rotate(-11.000000) translate(-10.125000, -6.375000) "></path>
                    <path d="M0,9.69800299 C0,1.13649395 10.5532885,2.41672144 5.26862371,9.72255733 C2.88742753,13.014465 3.49580327,12.2664338 0.434362832,14.25" id="Path-14-Copy" fill="#BCBCBC" transform="translate(3.375000, 9.000000) scale(-1, 1) translate(-3.375000, -9.000000) "></path>
                    <path d="M7.125,17.733871 L7.125,1.76612903" id="Line-8-Copy" stroke-dasharray="5" transform="translate(7.125000, 9.750000) scale(-1, 1) translate(-7.125000, -9.750000) "></path>
                </g>
                <g id="Group-19-Copy-2" transform="translate(90.000000, 519.000000)" stroke="#FFFFFF" stroke-linecap="round" stroke-linejoin="round" stroke-width="2">
                    <path d="M13.7893341,34.9274298 C11.9484706,32.750926 6.95210438,27.7501211 9.12849987,24.6623667 C10.2964825,23.005295 13.3540409,23.6439762 13.8694725,25.6094512 C14.6688299,28.657609 15.0183501,31.8057642 15.5927889,34.9039207" id="Path-13-Copy-2" fill="#BCBCBC" transform="translate(12.091141, 29.320511) scale(-1, 1) rotate(-11.000000) translate(-12.091141, -29.320511) "></path>
                    <path d="M1.66885317,32.6226951 C1.66885317,24.113074 12.5419383,25.3855425 7.09713215,32.6471006 C4.64377851,35.9190573 5.27058987,35.1755596 2.11637852,37.1471042" id="Path-14-Copy-2" fill="#BCBCBC" transform="translate(5.146126, 31.928922) scale(-1, 1) translate(-5.146126, -31.928922) "></path>
                    <path d="M8.52601323,20.737016 C7.64627148,20.5320018 6.54731553,20.9799292 3.71953087,18.8949362 C0.521118262,16.5366704 -2.83315196,6.89083757 3.92640502,11.2598857 C5.70525439,12.4096472 6.54541126,14.5284913 7.85491439,16.1627941" id="Path-15" fill="#BCBCBC"></path>
                    <path d="M8.56291723,16.5217791 C8.57888549,15.03147 11.3867865,6.56339008 13.3056647,12.4690898 C14.0438281,14.7409232 13.36837,16.7997929 10.3898636,22.6801414" id="Path-16" fill="#BCBCBC" transform="translate(11.071761, 16.540593) rotate(18.000000) translate(-11.071761, -16.540593) "></path>
                    <path d="M7.2509457,10.004585 C0.00216807629,5.94878897 -3.55001066,-7.0596487 7.85067136,5.0123624" id="Path-17" fill="#BCBCBC"></path>
                    <path d="M8.23703499,40.6098608 L9.3961259,1.57338389" id="Line-8-Copy-2" stroke-dasharray="5" transform="translate(8.623399, 21.119832) scale(-1, 1) translate(-8.623399, -21.119832) "></path>
                </g>
                <g id="Group-21-Copy-3" transform="translate(169.000000, 542.000000)" stroke="#FFFFFF" stroke-linecap="round" stroke-linejoin="round" stroke-width="2">
                    <path d="M25.5395538,39.6390931 L25.5395538,54.6427696" id="Line-9"></path>
                    <path d="M29.9208925,39.6390931 L29.9208925,54.6427696" id="Line-9-Copy"></path>
                    <path d="M17.872211,6.41666667 C20.3827904,6.41666667 22.6243536,7.54360014 24.0973091,9.30865979 C24.4528883,9.28572247 24.8123269,9.2745098 25.1744422,9.2745098 C26.2141286,9.2745098 27.2317502,9.36694128 28.2191912,9.54386366 C29.588745,8.4808084 31.3220024,7.84558824 33.2068966,7.84558824 C37.6430986,7.84558824 41.2393509,11.3642131 41.2393509,15.7046569 C41.2393509,16.8770508 40.9769719,17.9894857 40.5065322,18.9888158 C40.780851,19.5875442 41.019945,20.2057442 41.2207903,20.8403936 C43.8317358,22.136665 45.6206897,24.7891709 45.6206897,27.8504902 C45.6206897,30.2948878 44.4801101,32.4786392 42.6912625,33.9200595 C42.6969873,34.038627 42.6997972,34.1593111 42.6997972,34.2806373 C42.6997972,38.621081 39.1035448,42.1397059 34.6673428,42.1397059 C33.2765093,42.1397059 31.968238,41.7938457 30.82747,41.185233 C29.337166,41.7068127 27.7489738,42.0278057 26.0973124,42.1153187 C24.9354142,45.0552855 22.0178619,47.1409314 18.6024341,47.1409314 C14.166232,47.1409314 10.5699797,43.6223065 10.5699797,39.2818627 C10.5699797,37.871949 10.9494406,36.54875 11.6138905,35.4046983 C9.58041409,32.6869535 8.37931034,29.3342693 8.37931034,25.7071078 C8.37931034,22.7469437 9.17928886,19.9695914 10.579259,17.570721 C10.1042444,16.5694864 9.83975659,15.4528314 9.83975659,14.2757353 C9.83975659,9.93529154 13.4360089,6.41666667 17.872211,6.41666667 Z" id="Combined-Shape" fill="#DEDEDE" transform="translate(27.000000, 26.778799) scale(-1, 1) rotate(28.000000) translate(-27.000000, -26.778799) "></path>
                    <path d="M17.9406129,20.1274218 C19.5712666,9.71079631 25.0325259,19.9574441 25.2095255,20.0764451 C26.0979361,20.6737446 39.9813542,27.9967069 29.8388093,33.931705" id="Path-18" transform="translate(25.735013, 24.694787) rotate(-122.000000) translate(-25.735013, -24.694787) "></path>
                </g>
                <g id="Group-21-Copy-4" transform="translate(205.000000, 562.000000)" stroke="#FFFFFF" stroke-linecap="round" stroke-linejoin="round" stroke-width="2">
                    <path d="M22.5520362,35.4613636 L22.5520362,50.6386364" id="Line-9"></path>
                    <path d="M26.8959276,35.4613636 L26.8959276,50.6386364" id="Line-9-Copy"></path>
                    <path d="M14.9502262,1.85454545 C17.4388789,1.85454545 19.6609151,2.99408844 21.1212932,4.77899085 C21.475043,4.75678471 21.8312187,4.74545455 22.1900452,4.74545455 C23.2210253,4.74545455 24.2301216,4.83898812 25.2092833,5.0180186 C26.5665867,3.94258188 28.2850446,3.3 30.1538462,3.3 C34.5521319,3.3 38.1176471,6.85933624 38.1176471,11.25 C38.1176471,12.4361035 37.8574472,13.5615393 37.3909211,14.5725273 C37.662922,15.1774825 37.8998996,15.8025879 38.0989854,16.4443215 C40.6879834,17.7565924 42.4615385,20.439719 42.4615385,23.5363636 C42.4615385,26.0088906 41.3308473,28.2177882 39.5574781,29.6758888 C39.5628244,29.7960738 39.5656109,29.9181666 39.5656109,30.0409091 C39.5656109,34.4315729 36.0000957,37.9909091 31.60181,37.9909091 C30.223176,37.9909091 28.9263614,37.6412055 27.7955244,37.0258105 C26.3176188,37.552945 24.7423938,37.8778021 23.1042054,37.9662839 C21.9534413,40.9399447 19.0606674,43.05 15.6742081,43.05 C11.2759224,43.05 7.71040724,39.4906638 7.71040724,35.1 C7.71040724,33.6735392 8.08674832,32.3348252 8.74572003,31.1774061 C6.72926655,28.4286923 5.53846154,25.0372598 5.53846154,21.3681818 C5.53846154,18.3742236 6.3313612,15.5651361 7.71897344,13.138763 C7.24869645,12.1250247 6.98642534,10.9953604 6.98642534,9.80454545 C6.98642534,5.41388169 10.5519405,1.85454545 14.9502262,1.85454545 Z" id="Combined-Shape" fill="#DEDEDE" transform="translate(24.000000, 22.452273) rotate(-101.000000) translate(-24.000000, -22.452273) "></path>
                    <path d="M15.6598555,20.7387335 C16.9213064,14.7939467 23.0200558,13.9469497 23.8246436,19.6048041 C24.5686887,24.8369231 20.5106465,32.2401557 28.7406408,30.8739267" id="Path-18" transform="translate(22.200248, 23.414167) rotate(-105.000000) translate(-22.200248, -23.414167) "></path>
                </g>
                <g id="Group-21-Copy-2" transform="translate(137.000000, 535.000000)" stroke="#FFFFFF" stroke-linecap="round" stroke-linejoin="round" stroke-width="2">
                    <path d="M17.0490196,33.5073529 L17.0490196,48.6397059" id="Line-9"></path>
                    <path d="M21.4019608,33.5073529 L21.4019608,48.6397059" id="Line-9-Copy"></path>
                    <path d="M9.43137255,0 C11.9256824,0 14.1527191,1.13660088 15.6161276,2.91680159 C15.9693489,2.89366331 16.3264819,2.88235294 16.6862745,2.88235294 C17.7194025,2.88235294 18.730601,2.97560969 19.7118026,3.15411029 C21.0723702,2.08169417 22.7942091,1.44117647 24.6666667,1.44117647 C29.0741156,1.44117647 32.6470588,4.98997823 32.6470588,9.36764706 C32.6470588,10.5499716 32.3864352,11.6718356 31.9191371,12.6796544 C32.19142,13.2835935 32.4288718,13.906806 32.6283583,14.546595 C35.2227501,15.8549821 37,18.5301675 37,21.6176471 C37,24.0832431 35.8665976,26.2859074 34.0890529,27.7396856 C34.095247,27.8588306 34.0980392,27.980562 34.0980392,28.1029412 C34.0980392,32.48061 30.5250959,36.0294118 26.1176471,36.0294118 C24.7363895,36.0294118 23.4370923,35.6808686 22.3040434,35.0675008 C20.8229355,35.5926128 19.2445236,35.9165428 17.6030138,36.0048232 C16.4490515,38.9698107 13.5503033,41.0735294 10.1568627,41.0735294 C5.74941386,41.0735294 2.17647059,37.5247276 2.17647059,33.1470588 C2.17647059,31.7243165 2.55386272,30.3891232 3.21464156,29.2348492 C1.19291877,26.4944558 0,23.1135383 0,19.4558824 C0,16.470766 0.794561794,13.6699757 2.18508155,11.2507731 C1.7137979,10.240082 1.45098039,9.11376108 1.45098039,7.92647059 C1.45098039,3.54880176 5.02392366,0 9.43137255,0 Z" id="Combined-Shape" fill="#DEDEDE"></path>
                    <path d="M8.9566502,16.0012022 C10.9467259,2.72341025 17.85567,14.4386451 18.0828007,14.5920832 C19.2228338,15.3622319 38.3783277,19.6066813 25.4765996,27.0894115" id="Path-18"></path>
                </g>
                <circle id="Oval-Copy-21" fill="#A4A4A4" cx="144.5" cy="569.5" r="2.5"></circle>
                <circle id="Oval-Copy-22" fill="#A4A4A4" cx="162.5" cy="545.5" r="2.5"></circle>
                <circle id="Oval-Copy-27" fill="#A4A4A4" cx="205.5" cy="563.5" r="2.5"></circle>
                <circle id="Oval-Copy-28" fill="#A4A4A4" cx="201.5" cy="573.5" r="2.5"></circle>
                <circle id="Oval-Copy-29" fill="#A4A4A4" cx="184.5" cy="556.5" r="2.5"></circle>
                <circle id="Oval-Copy-30" fill="#A4A4A4" cx="225.5" cy="574.5" r="2.5"></circle>
                <circle id="Oval-Copy-31" fill="#A4A4A4" cx="240.5" cy="588.5" r="2.5"></circle>
                <circle id="Oval-Copy-33" fill="#A4A4A4" cx="221" cy="598" r="2"></circle>
                <circle id="Oval-Copy-23" fill="#A4A4A4" cx="157.5" cy="557.5" r="2.5"></circle>
                <polygon id="Rectangle-Copy-78" fill="#A4A4A4" points="496 194 548 217.291874 548 236 496 212.708126"></polygon>
                <circle id="Oval-Copy-24" fill="#A4A4A4" cx="147.5" cy="539.5" r="2.5"></circle>
                <polygon id="Rectangle-Copy-79" stroke="#FFFFFF" stroke-width="2" fill="#BCBCBC" stroke-linecap="round" stroke-linejoin="round" transform="translate(496.500000, 247.000000) scale(-1, 1) translate(-496.500000, -247.000000) " points="485 249.137375 500.566192 242 508 244.862625 492.433808 252"></polygon>
                <path d="M563.5,221 L563.5,277" id="Path-20-Copy-2" stroke="#FFFFFF" stroke-width="2" stroke-linecap="round" stroke-linejoin="round" stroke-dasharray="5"></path>
                <g id="Group-26-Copy-2" transform="translate(517.000000, 241.000000)" fill="#8D8D8D" stroke="#FFE88B" stroke-linecap="round" stroke-linejoin="round" stroke-width="2">
                    <g id="Group-25">
                        <path d="M41.813419,4.35294118 L47.9636699,8.30424398 L36.4173333,25.8939412 L35.1723333,35.9989412 L36.3315639,68.8290516 L27.5369246,69.1328825 L26.8653333,50.1299412 L25.7863333,50.1299412 L15.1032722,70.0090887 L7.33333333,65.9219245 L19.4073333,43.4549412 L17.5304745,28.2274654 L20.6942506,20.3852775 L31.2883333,20.3849412 L41.813419,4.35294118 Z" id="Combined-Shape-Copy-10" transform="translate(27.648502, 37.181015) rotate(13.000000) translate(-27.648502, -37.181015) "></path>
                        <polygon id="Rectangle-Copy-37" transform="translate(32.060327, 14.398384) rotate(13.000000) translate(-32.060327, -14.398384) " points="25.4793708 7.88087249 38.6722268 7.84992864 38.641283 20.9158961 25.4484269 20.94684"></polygon>
                    </g>
                    <polygon id="Rectangle" transform="translate(25.158012, 31.604879) rotate(153.000000) translate(-25.158012, -31.604879) " points="21.44708 19.5916989 28.764248 19.6234253 28.8689439 43.6180587 21.5517759 43.5863323"></polygon>
                </g>
                <path d="M565,276.397275 L489,310 L489,253.602725 L489,253.602725 L565,220" id="Path-Copy-5" stroke="#FFFFFF" stroke-width="2" stroke-linecap="round" stroke-linejoin="round" stroke-dasharray="5"></path>
                <path d="M551,389.052365 L523,401 L523,380.947635 L551,369 L551,389.052365 Z" id="Path-Copy-6" stroke="#FFFFFF" stroke-width="2" stroke-linecap="round" stroke-linejoin="round" stroke-dasharray="5" transform="translate(537.000000, 385.000000) scale(-1, 1) translate(-537.000000, -385.000000) "></path>
                <path d="M514,372.052365 L486,384 L486,363.947635 L514,352 L514,372.052365 Z" id="Path-Copy-7" stroke="#FFFFFF" stroke-width="2" stroke-linecap="round" stroke-linejoin="round" stroke-dasharray="5" transform="translate(500.000000, 368.000000) scale(-1, 1) translate(-500.000000, -368.000000) "></path>
                <g id="chair-copy-4" transform="translate(291.000000, 345.000000)" stroke="#FFFFFF" stroke-linecap="round" stroke-linejoin="round" stroke-width="2">
                    <polygon id="Rectangle-Copy-42" fill="#BCBCBC" points="0.707070707 8.24932966 18.3838384 1.84909559e-15 18.3838384 22.1644634 0.707070707 30.4137931"></polygon>
                    <polygon id="Rectangle-Copy-38" fill="#BCBCBC" points="0.707070707 30.5966365 18.6464651 22.4482759 31.1111111 27.334398 13.1717167 35.4827586"></polygon>
                    <path d="M0.707070707,29.3275862 L0.707070707,41.637931" id="Line-5"></path>
                </g>
                <path d="M319.314206,348.412943 L319.281819,348.672943 L341.247549,355.80777 L339.006037,362.704418 L318.387819,356.006943 L315.687364,378.144358 L302.630731,378.144358 L299.728819,354.355636 L302.841301,348.424975 L318.481819,348.413943 L318.481956,348.412943 L318.483819,348.413943 L319.314206,348.412943 Z" id="Combined-Shape-Copy-13" stroke="#FFE88B" stroke-width="2" fill="#8D8D8D" stroke-linecap="round" stroke-linejoin="round" transform="translate(320.488184, 363.278651) rotate(10.000000) translate(-320.488184, -363.278651) "></path>
                <polygon id="Rectangle-Copy-80" stroke="#FFE88B" stroke-width="2" fill="#8D8D8D" stroke-linecap="round" stroke-linejoin="round" transform="translate(313.646334, 339.614134) rotate(18.000000) translate(-313.646334, -339.614134) " points="307.11876 333.088104 320.175029 333.086982 320.173907 346.140163 307.117638 346.141285"></polygon>
                <g id="table-copy-9" transform="translate(331.500000, 386.000000) scale(-1, 1) translate(-331.500000, -386.000000) translate(276.000000, 351.000000)" stroke="#FFFFFF" stroke-linecap="round" stroke-linejoin="round" stroke-width="2">
                    <polygon id="Path-5" fill="#DEDEDE" points="1.09539474 12.864066 30.0717606 0 109.904605 35.0174216 80.9282394 47.8571429"></polygon>
                    <path d="M0.730263158,13.1428571 L0.730263158,35.4285714" id="Line-7" stroke-dasharray="5"></path>
                    <path d="M81.0592105,47.4285714 L81.0592105,69.7142857" id="Line-7-Copy" stroke-dasharray="5"></path>
                    <path d="M110.269737,35.2857143 L110.269737,57.5714286" id="Line-7-Copy-2" stroke-dasharray="5"></path>
                </g>
                <polygon id="Rectangle-Copy-81" stroke="#FFFFFF" stroke-width="2" fill="#BCBCBC" stroke-linecap="round" stroke-linejoin="round" points="308 381.126804 326.29103 373 339 377.873196 320.70897 386"></polygon>
                <polygon id="Rectangle-Copy-82" stroke="#FFE88B" stroke-width="2" fill="#8D8D8D" stroke-linecap="round" stroke-linejoin="round" transform="translate(309.729705, 360.681108) rotate(4.000000) translate(-309.729705, -360.681108) " points="320.605469 369.887491 314.663522 374.046945 298.853941 351.474725 304.795888 347.315271"></polygon>
                <g id="table-copy-10" transform="translate(396.000000, 233.000000) scale(-1, 1) translate(-396.000000, -233.000000) translate(352.000000, 205.000000)" stroke="#FFFFFF" stroke-linecap="round" stroke-linejoin="round" stroke-width="2">
                    <polygon id="Path-5" fill="#DEDEDE" points="0 10.2893085 23.2426942 0 87.2786885 28.0086446 64.0359943 38.278481"></polygon>
                    <path d="M0.360655738,10.1544304 L0.360655738,28.1240506" id="Line-7" stroke-dasharray="5"></path>
                    <path d="M63.8360656,37.8 L63.8360656,55.7696203" id="Line-7-Copy" stroke-dasharray="5"></path>
                    <path d="M87.6393443,27.8759494 L87.6393443,45.8455696" id="Line-7-Copy-2" stroke-dasharray="5"></path>
                </g>
                <ellipse id="Oval-Copy-25" stroke="#FFFFFF" stroke-width="2" stroke-linecap="round" stroke-linejoin="round" transform="translate(413.097362, 219.359833) rotate(23.000000) translate(-413.097362, -219.359833) " cx="413.097362" cy="219.359833" rx="2.53867646" ry="1.45037771"></ellipse>
                <polygon id="Path-5-Copy-8" stroke="#FFFFFF" stroke-width="2" fill="#BCBCBC" stroke-linecap="round" stroke-linejoin="round" transform="translate(402.500000, 225.500000) scale(-1, 1) translate(-402.500000, -225.500000) " points="393 223.419212 398.059783 221 412 227.585366 406.940217 230"></polygon>
                <ellipse id="Oval-Copy-26" stroke="#FFFFFF" stroke-width="2" stroke-linecap="round" stroke-linejoin="round" transform="translate(389.160202, 224.073350) rotate(-22.000000) translate(-389.160202, -224.073350) " cx="389.160202" cy="224.07335" rx="4.71470187" ry="1.81296563"></ellipse>
                <polygon id="Rectangle-Copy-83" stroke="#FFFFFF" stroke-width="2" fill="#BCBCBC" stroke-linecap="round" stroke-linejoin="round" points="321 370.187951 339 362 339 376.812049 321 385"></polygon>
                <g id="Group-28-Copy-2" transform="translate(345.000000, 365.000000)" fill="#BCBCBC" stroke="#FFFFFF" stroke-linecap="round" stroke-linejoin="round" stroke-width="2">
                    <path d="M6,1.5 L6,7.5 L5.93987477,7.50035195 C5.66169501,8.35601671 4.45117579,9 3,9 C1.54882421,9 0.338304988,8.35601671 0.0601252316,7.50035195 L0,7.5 L0,1.5 L6,1.5 Z" id="Combined-Shape"></path>
                    <ellipse id="Oval" cx="3" cy="1.875" rx="3" ry="1.875"></ellipse>
                </g>
                <polygon id="Rectangle-Copy-84" stroke="#FFFFFF" stroke-width="2" fill="#BCBCBC" stroke-linecap="round" stroke-linejoin="round" transform="translate(359.500000, 362.500000) scale(-1, 1) translate(-359.500000, -362.500000) " points="349 363.626249 361.390698 358 370 361.373751 357.609302 367"></polygon>
                <path d="M360.357143,357.4 L369.642857,360.6" id="Line-10-Copy-2" stroke="#FFFFFF" stroke-width="2" stroke-linecap="round" stroke-linejoin="round"></path>
                <polygon id="Rectangle-Copy-85" fill="#A4A4A4" transform="translate(120.500000, 239.000000) scale(-1, 1) translate(-120.500000, -239.000000) " points="98 211 143 231.624461 143 267 98 246.375539"></polygon>
                <polygon id="Rectangle-Copy-86" stroke="#FFFFFF" stroke-width="2" fill="#BCBCBC" stroke-linecap="round" stroke-linejoin="round" points="378 210.323938 399 200 399 218.676062 378 229"></polygon>
                <g id="chair-copy-5" transform="translate(421.500000, 233.500000) scale(-1, 1) translate(-421.500000, -233.500000) translate(407.000000, 209.000000)" stroke="#FFFFFF" stroke-linecap="round" stroke-linejoin="round" stroke-width="2">
                    <path d="M13.775,23.0588235 L13.775,36.75" id="Line-5-Copy-11" stroke-dasharray="5"></path>
                    <polygon id="Rectangle-Copy-42" fill="#BCBCBC" points="0.725 8.20889177 13.775 1.8400314e-15 13.775 22.0558141 0.725 30.2647059"></polygon>
                    <polygon id="Rectangle-Copy-38" fill="#BCBCBC" points="0.725 30.2647059 13.775 22.6985294 28.275 27.8595823 16.486674 35.5394118"></polygon>
                    <path d="M28.275,28.1029412 L28.275,41.7941176" id="Line-5" stroke-dasharray="5"></path>
                    <path d="M16.675,35.3088235 L16.675,49" id="Line-5-Copy-2" stroke-dasharray="5"></path>
                    <path d="M0.725,30.2647059 L0.725,43.9558824" id="Line-5-Copy-3" stroke-dasharray="5"></path>
                </g>
                <g id="roof-copy-2" transform="translate(19.000000, 0.000000)" stroke="#FFFFFF" stroke-linecap="round" stroke-linejoin="round" stroke-width="2">
                    <polyline id="Line-6-Copy-5" fill="#DEDEDE" points="595.913228 176.787671 337.261529 60.6232877 338.710558 61.6434108 169.898665 1.0890411 1.08677184 149.19863 0.362257282 148.472603 259.013956 264.636986 259.079671 264.304816 427.891564 116.195227 596.703457 176.749596"></polyline>
                    <path d="M169.17415,0.363013699 L427.82585,116.527397" id="Line-6-Copy-2" stroke-dasharray="5"></path>
                </g>
                <polygon id="Rectangle-Copy-87" fill="#A4A4A4" transform="translate(449.365787, 185.096712) rotate(4.000000) translate(-449.365787, -185.096712) " points="444.651028 178.751157 454.08072 182.910717 454.080547 191.442266 444.650854 187.282706"></polygon>
                <polygon id="Rectangle-Copy-88" fill="#A4A4A4" transform="translate(461.697052, 198.149528) rotate(12.000000) translate(-461.697052, -198.149528) " points="456.982594 191.804087 466.412018 195.963325 466.41151 204.494969 456.982086 200.335731"></polygon>
                <polygon id="Rectangle-Copy-89" fill="#A4A4A4" points="461 177 469 181.260932 469 190 461 185.739068"></polygon>
                <polygon id="Rectangle-Copy-90" fill="#A4A4A4" points="471 187 479 191.260932 479 200 471 195.739068"></polygon>
                <polygon id="Rectangle-Copy-91" fill="#A4A4A4" transform="translate(437.759891, 183.646399) rotate(-12.000000) translate(-437.759891, -183.646399) " points="433.044678 177.300397 442.474597 181.460756 442.475104 189.9924 433.045186 185.832041"></polygon>
                <polygon id="Rectangle-Copy-92" fill="#A4A4A4" points="436 167 444 171.260932 444 180 436 175.739068"></polygon>
                <polygon id="Rectangle-Copy-93" fill="#A4A4A4" points="457 206 465 210.260932 465 219 457 214.739068"></polygon>
                <polygon id="Rectangle-Copy-94" fill="#A4A4A4" transform="translate(429.055469, 191.623120) rotate(4.000000) translate(-429.055469, -191.623120) " points="424.34071 185.277566 433.770402 189.437125 433.770229 197.968674 424.340536 193.809114"></polygon>
                <polygon id="Rectangle-Copy-95" fill="#A4A4A4" transform="translate(426.153995, 169.868426) rotate(-12.000000) translate(-426.153995, -169.868426) " points="421.438782 163.522424 430.868701 167.682783 430.869208 176.214427 421.43929 172.054068"></polygon>
                <polygon id="Rectangle-Copy-96" fill="#A4A4A4" transform="translate(456.619472, 166.967800) rotate(-12.000000) translate(-456.619472, -166.967800) " points="451.904259 160.621798 461.334178 164.782157 461.334685 173.313801 451.904767 169.153443"></polygon>
                <polygon id="Rectangle-Copy-97" fill="#A4A4A4" points="444 194 452 198.260932 452 207 444 202.739068"></polygon>
                <path d="M551.361963,517.363014 L786.638037,622.636986" id="Line-6-Copy-32" stroke="#FFFFFF" stroke-width="2" stroke-linecap="round" stroke-linejoin="round"></path>
                <path d="M469.361963,552.363014 L704.638037,657.636986" id="Line-6-Copy-33" stroke="#FFFFFF" stroke-width="2" stroke-linecap="round" stroke-linejoin="round"></path>
                <g id="Group-15-Copy-2" transform="translate(654.000000, 548.000000)" fill="#8D8D8D" stroke="#FFE88B" stroke-linecap="round" stroke-linejoin="round" stroke-width="2">
                    <path d="M27.5840176,12.3416016 L27.5480809,12.6216016 L27.6842778,12.5662873 L36,31.6303354 L30.0634503,34.0825198 L26.0200809,24.8136016 L24.5110809,36.8556016 L24.5297574,36.8609809 L24.4960809,36.9816016 L24.3594014,38.0727376 L24.1950809,38.0726016 L18.6876128,58.078125 L11.2122367,56.1289422 L15.6610809,39.9706016 L8.67208118,55.2470225 L1.60208088,52.1838627 L11.7410809,30.0226016 L10.952,23.7206016 L5.79653164,34.0071914 L1.27211131e-10,31.2560237 L9.32961935,12.6416156 L9.578,12.7596016 L9.526167,12.3416016 L27.5840176,12.3416016 Z" id="Combined-Shape-Copy-8"></path>
                    <polygon id="Rectangle-Copy-32" transform="translate(18.921693, 6.324010) rotate(5.000000) translate(-18.921693, -6.324010) " points="13.1448644 0.639856765 24.7148633 0.623515522 24.6985221 12.0081628 13.1285232 12.0245041"></polygon>
                </g>
                <path d="M644.970584,549.625332 C644.970584,549.866 644.942084,550.128831 644.885084,550.413832 C644.828083,550.698834 644.761584,550.929998 644.685584,551.107332 C644.571583,551.348 644.406918,551.575998 644.191584,551.791332 C643.976249,552.006666 643.735585,552.193498 643.469584,552.351832 C643.203582,552.510166 642.918585,552.636832 642.614584,552.731832 C642.310582,552.826833 642.019252,552.874332 641.740584,552.874332 C641.043913,552.874332 640.530919,552.690667 640.201584,552.323332 C640.074916,552.171331 639.973584,551.994 639.897584,551.791332 C639.821583,551.588664 639.783584,551.386 639.783584,551.183332 C639.783584,550.752663 639.932415,550.356834 640.230084,549.995832 C640.527752,549.63483 640.942581,549.346666 641.474584,549.131332 C641.879919,548.966665 642.266248,548.884332 642.633584,548.884332 C643.241587,548.884332 643.741915,548.972998 644.134584,549.150332 L644.134584,537.598332 L655.173584,534.919332 L655.173584,546.927332 C655.173584,547.86467 654.85692,548.630996 654.223584,549.226332 C653.881582,549.530334 653.504752,549.767831 653.093084,549.938832 C652.681415,550.109833 652.272919,550.195332 651.867584,550.195332 C651.18358,550.195332 650.676919,550.011667 650.347584,549.644332 C650.220916,549.492331 650.119584,549.315 650.043584,549.112332 C649.967583,548.909664 649.929584,548.707 649.929584,548.504332 C649.929584,548.136997 650.046749,547.7855 650.281084,547.449832 C650.515418,547.114164 650.835248,546.838666 651.240584,546.623332 C651.455918,546.509332 651.712415,546.407999 652.010084,546.319332 C652.307752,546.230665 652.545249,546.186332 652.722584,546.186332 C653.343253,546.186332 653.881581,546.281331 654.337584,546.471332 L654.337584,538.035332 L644.970584,540.372332 L644.970584,549.625332 Z" id="♫" stroke="#6C8161" stroke-width="2" fill="#6B8160" fill-rule="nonzero" transform="translate(647.478584, 543.896832) scale(-1, 1) rotate(27.000000) translate(-647.478584, -543.896832) "></path>
                <polygon id="Path-5-Copy-9" fill="#A4A4A4" transform="translate(251.500000, 346.500000) scale(-1, 1) translate(-251.500000, -346.500000) " points="205 336.558459 229.766304 325 298 356.463415 273.233696 368"></polygon>
                <g id="Group-23-Copy-2" transform="translate(218.000000, 289.000000)" fill="#8D8D8D" stroke="#FFE88B" stroke-linecap="round" stroke-linejoin="round" stroke-width="2">
                    <path d="M56.6790428,8.77870171 L58.44119,15.9165094 L37.0158186,21.3107017 L35.9898186,29.8087017 L37.1418619,63.0980052 L28.4064458,63.4060835 L27.7398186,44.1377017 L22.3750356,44.137931 L24.6592807,45.607627 L17.3485851,50.1674807 L12.4084201,45.607627 L10.5612995,41.2002718 L20.2668186,36.8357017 L18.3688186,21.1117017 L-0.000181397091,18.5047906 L1.01354847,11.22006 L20.4408186,13.9767017 L36.0328186,13.9767017 L56.6790428,8.77870171 Z" id="Combined-Shape-Copy-11"></path>
                    <rect id="Rectangle-Copy-51" x="21.6318944" y="0" width="13.1111111" height="13.2413793"></rect>
                    <polyline id="Path" transform="translate(21.606044, 48.797411) scale(-1, 1) rotate(53.000000) translate(-21.606044, -48.797411) " points="24.5938373 39.5322021 26.0041101 58.0626199 17.2079777 58.0208793 17.2896658 46.6179915"></polyline>
                </g>
            </g>
        </g>
    </g>
</svg>