<?xml version="1.0" encoding="UTF-8"?>
<svg width="55px" height="334px" viewBox="0 0 55 334" version="1.1" xmlns="http://www.w3.org/2000/svg" xmlns:xlink="http://www.w3.org/1999/xlink">
    <!-- Generator: Sketch 57.1 (83088) - https://sketch.com -->
    <title>Group 6</title>
    <desc>Created with Sketch.</desc>
    <g id="Page-1" stroke="none" stroke-width="1" fill="none" fill-rule="evenodd">
        <g id="Artboard" transform="translate(-747.000000, -203.000000)" fill-rule="nonzero">
            <g id="Group-Copy" transform="translate(700.000000, 158.000000)">
                <g id="Group-6" transform="translate(49.589025, 48.298754)">
                    <path id="Path-5" d="M58.2893997,315.460985 L60.0325507,316.441507 L52.4109752,329.990975 L44.7893997,316.441507 L46.5325507,315.460985 L51.41,324.133 L51.4109752,323.201246 L53.4109752,323.201246 L53.41,324.133 L58.2893997,315.460985 Z M53.4109752,317.201246 L53.4109752,320.201246 L51.4109752,320.201246 L51.4109752,317.201246 L53.4109752,317.201246 Z M53.4109752,311.201246 L53.4109752,314.201246 L51.4109752,314.201246 L51.4109752,311.201246 L53.4109752,311.201246 Z M53.4109752,305.201246 L53.4109752,308.201246 L51.4109752,308.201246 L51.4109752,305.201246 L53.4109752,305.201246 Z M53.4109752,299.201246 L53.4109752,302.201246 L51.4109752,302.201246 L51.4109752,299.201246 L53.4109752,299.201246 Z M53.4109752,293.201246 L53.4109752,296.201246 L51.4109752,296.201246 L51.4109752,293.201246 L53.4109752,293.201246 Z M53.4109752,287.201246 L53.4109752,290.201246 L51.4109752,290.201246 L51.4109752,287.201246 L53.4109752,287.201246 Z M53.4109752,281.201246 L53.4109752,284.201246 L51.4109752,284.201246 L51.4109752,281.201246 L53.4109752,281.201246 Z M53.4109752,275.201246 L53.4109752,278.201246 L51.4109752,278.201246 L51.4109752,275.201246 L53.4109752,275.201246 Z M53.4109752,269.201246 L53.4109752,272.201246 L51.4109752,272.201246 L51.4109752,269.201246 L53.4109752,269.201246 Z M9.4109752,266.201246 L9.4109752,268.201246 L6.4109752,268.201246 L6.4109752,266.201246 L9.4109752,266.201246 Z M15.4109752,266.201246 L15.4109752,268.201246 L12.4109752,268.201246 L12.4109752,266.201246 L15.4109752,266.201246 Z M21.4109752,266.201246 L21.4109752,268.201246 L18.4109752,268.201246 L18.4109752,266.201246 L21.4109752,266.201246 Z M27.4109752,266.201246 L27.4109752,268.201246 L24.4109752,268.201246 L24.4109752,266.201246 L27.4109752,266.201246 Z M33.4109752,266.201246 L33.4109752,268.201246 L30.4109752,268.201246 L30.4109752,266.201246 L33.4109752,266.201246 Z M39.4109752,266.201246 L39.4109752,268.201246 L36.4109752,268.201246 L36.4109752,266.201246 L39.4109752,266.201246 Z M45.4109752,266.201246 L45.4109752,268.201246 L42.4109752,268.201246 L42.4109752,266.201246 L45.4109752,266.201246 Z M51.4109752,266.201246 L51.4109752,268.201246 L48.4109752,268.201246 L48.4109752,266.201246 L51.4109752,266.201246 Z" fill="#CC6248"></path>
                    <path id="Path-6" d="M52.1397581,153.201246 L52.1397581,155.201246 L49.1397581,155.201246 L49.1397581,153.201246 L52.1397581,153.201246 Z M46.1397581,153.201246 L46.1397581,155.201246 L43.1397581,155.201246 L43.1397581,153.201246 L46.1397581,153.201246 Z M40.1397581,153.201246 L40.1397581,155.201246 L37.1397581,155.201246 L37.1397581,153.201246 L40.1397581,153.201246 Z M34.1397581,153.201246 L34.1397581,155.201246 L31.1397581,155.201246 L31.1397581,153.201246 L34.1397581,153.201246 Z M28.1397581,153.201246 L28.1397581,155.201246 L25.1397581,155.201246 L25.1397581,153.201246 L28.1397581,153.201246 Z M22.1397581,153.201246 L22.1397581,155.201246 L19.1397581,155.201246 L19.1397581,153.201246 L22.1397581,153.201246 Z M16.1397581,153.201246 L16.1397581,155.201246 L13.1397581,155.201246 L13.1397581,153.201246 L16.1397581,153.201246 Z M10.1397581,153.201246 L10.1397581,155.201246 L7.1397581,155.201246 L7.1397581,153.201246 L10.1397581,153.201246 Z M7.1397581,149.201246 L7.1397581,152.201246 L5.1397581,152.201246 L5.1397581,149.201246 L7.1397581,149.201246 Z M7.1397581,143.201246 L7.1397581,146.201246 L5.1397581,146.201246 L5.1397581,143.201246 L7.1397581,143.201246 Z M7.1397581,137.201246 L7.1397581,140.201246 L5.1397581,140.201246 L5.1397581,137.201246 L7.1397581,137.201246 Z M7.1397581,131.201246 L7.1397581,134.201246 L5.1397581,134.201246 L5.1397581,131.201246 L7.1397581,131.201246 Z M7.1397581,125.201246 L7.1397581,128.201246 L5.1397581,128.201246 L5.1397581,125.201246 L7.1397581,125.201246 Z M7.1397581,119.201246 L7.1397581,122.201246 L5.1397581,122.201246 L5.1397581,119.201246 L7.1397581,119.201246 Z M7.1397581,113.201246 L7.1397581,116.201246 L5.1397581,116.201246 L5.1397581,113.201246 L7.1397581,113.201246 Z M7.1397581,107.201246 L7.1397581,110.201246 L5.1397581,110.201246 L5.1397581,107.201246 L7.1397581,107.201246 Z M7.1397581,101.201246 L7.1397581,104.201246 L5.1397581,104.201246 L5.1397581,101.201246 L7.1397581,101.201246 Z M7.1397581,95.2012459 L7.1397581,98.2012459 L5.1397581,98.2012459 L5.1397581,95.2012459 L7.1397581,95.2012459 Z M7.1397581,89.2012459 L7.1397581,92.2012459 L5.1397581,92.2012459 L5.1397581,89.2012459 L7.1397581,89.2012459 Z M7.1397581,83.2012459 L7.1397581,86.2012459 L5.1397581,86.2012459 L5.1397581,83.2012459 L7.1397581,83.2012459 Z M7.1397581,77.2012459 L7.1397581,80.2012459 L5.1397581,80.2012459 L5.1397581,77.2012459 L7.1397581,77.2012459 Z M7.1397581,71.2012459 L7.1397581,74.2012459 L5.1397581,74.2012459 L5.1397581,71.2012459 L7.1397581,71.2012459 Z M7.1397581,65.2012459 L7.1397581,68.2012459 L5.1397581,68.2012459 L5.1397581,65.2012459 L7.1397581,65.2012459 Z M7.1397581,59.2012459 L7.1397581,62.2012459 L5.1397581,62.2012459 L5.1397581,59.2012459 L7.1397581,59.2012459 Z M7.1397581,53.2012459 L7.1397581,56.2012459 L5.1397581,56.2012459 L5.1397581,53.2012459 L7.1397581,53.2012459 Z M7.1397581,47.2012459 L7.1397581,50.2012459 L5.1397581,50.2012459 L5.1397581,47.2012459 L7.1397581,47.2012459 Z M7.1397581,41.2012459 L7.1397581,44.2012459 L5.1397581,44.2012459 L5.1397581,41.2012459 L7.1397581,41.2012459 Z M7.1397581,35.2012459 L7.1397581,38.2012459 L5.1397581,38.2012459 L5.1397581,35.2012459 L7.1397581,35.2012459 Z M7.1397581,29.2012459 L7.1397581,32.2012459 L5.1397581,32.2012459 L5.1397581,29.2012459 L7.1397581,29.2012459 Z M7.1397581,23.2012459 L7.1397581,26.2012459 L5.1397581,26.2012459 L5.1397581,23.2012459 L7.1397581,23.2012459 Z M7.1397581,17.2012459 L7.1397581,20.2012459 L5.1397581,20.2012459 L5.1397581,17.2012459 L7.1397581,17.2012459 Z M7.1397581,11.2012459 L7.1397581,14.2012459 L5.1397581,14.2012459 L5.1397581,11.2012459 L7.1397581,11.2012459 Z M6.1397581,-2.78972886 L13.7613336,10.7597388 L12.0181826,11.7402612 L6.652,2.201 L5.626,2.201 L0.261333635,11.7402612 L-1.48181744,10.7597388 L6.1397581,-2.78972886 Z M7.1397581,5.20124592 L7.1397581,8.20124592 L5.1397581,8.20124592 L5.1397581,5.20124592 L7.1397581,5.20124592 Z" fill="#CDA84D"></path>
                    <path id="Path-7" d="M11.0962145,193.975571 L12.0936138,195.709121 L3.467,200.671 L3.90352899,200.667291 L3.92294555,202.667196 L3.488,202.671 L12.2077526,207.465416 L11.2441993,209.218004 L-2.37862219,201.728329 L11.0962145,193.975571 Z M9.90324623,200.609041 L9.92266279,202.608947 L6.92280417,202.638071 L6.90338761,200.638166 L9.90324623,200.609041 Z M15.9029635,200.550791 L15.92238,202.550697 L12.9225214,202.579822 L12.9031048,200.579916 L15.9029635,200.550791 Z M21.9026807,200.492541 L21.9220973,202.492447 L18.9222387,202.521572 L18.9028221,200.521666 L21.9026807,200.492541 Z M27.902398,200.434292 L27.9218145,202.434198 L24.9219559,202.463322 L24.9025393,200.463417 L27.902398,200.434292 Z M33.9021152,200.376042 L33.9215318,202.375948 L30.9216731,202.405073 L30.9022566,200.405167 L33.9021152,200.376042 Z M39.9018324,200.317792 L39.921249,202.317698 L36.9213904,202.346823 L36.9019738,200.346917 L39.9018324,200.317792 Z M45.9015497,200.259543 L45.9209662,202.259448 L42.9211076,202.288573 L42.9016911,200.288668 L45.9015497,200.259543 Z M51.9012669,200.201293 L51.9206835,202.201199 L48.9208249,202.230324 L48.9014083,200.230418 L51.9012669,200.201293 Z" fill="#6DA7B8"></path>
                </g>
            </g>
        </g>
    </g>
</svg>