<?xml version="1.0" encoding="UTF-8"?>
<svg width="181px" height="44px" viewBox="0 0 181 44" version="1.1" xmlns="http://www.w3.org/2000/svg" xmlns:xlink="http://www.w3.org/1999/xlink">
    <!-- Generator: Sketch 56.3 (81716) - https://sketch.com -->
    <title>Group</title>
    <desc>Created with Sketch.</desc>
    <defs>
        <path d="M8.58,0.39 L8.58,1.95 L5.2,1.95 L5.2,17.29 L3.38,17.29 L3.38,1.95 L0,1.95 L0,0.39 L8.58,0.39 Z M13.78,17.29 L11.96,17.29 L11.96,0.39 L15.886,0.39 C17.2380068,0.39 18.2649965,0.71066346 18.967,1.352 C19.6690035,1.99333654 20.02,2.88599428 20.02,4.03 L20.02,7.67 C20.02,9.43800884 19.257341,10.5646642 17.732,11.05 L20.93,17.29 L18.928,17.29 L15.886,11.31 L13.78,11.31 L13.78,17.29 Z M18.2,7.67 L18.2,4.03 C18.2,3.37133004 18.0006687,2.86000182 17.602,2.496 C17.2033313,2.13199818 16.6313371,1.95 15.886,1.95 L13.78,1.95 L13.78,9.75 L15.886,9.75 C17.4286744,9.75 18.2,9.0566736 18.2,7.67 Z M26.832,0.39 L29.562,0.39 L33.384,17.29 L31.564,17.29 L30.68,13.39 L25.714,13.39 L24.83,17.29 L23.01,17.29 L26.832,0.39 Z M28.184,2.418 L26.052,11.83 L30.316,11.83 L28.184,2.418 Z M41.496,17.29 L38.766,17.29 L34.944,0.39 L36.764,0.39 L40.118,15.288 L43.498,0.39 L45.318,0.39 L41.496,17.29 Z M56.628,17.29 L48.958,17.29 L48.958,0.39 L56.368,0.39 L56.368,1.95 L50.778,1.95 L50.778,7.93 L55.328,7.93 L55.328,9.49 L50.778,9.49 L50.778,15.73 L56.628,15.73 L56.628,17.29 Z M60.528,17.29 L60.528,0.39 L62.348,0.39 L62.348,15.73 L67.106,15.73 L67.106,17.29 L60.528,17.29 Z M73.866,15.73 L73.866,17.29 L69.446,17.29 L69.446,15.73 L70.746,15.73 L70.746,1.95 L69.446,1.95 L69.446,0.39 L73.866,0.39 L73.866,1.95 L72.566,1.95 L72.566,15.73 L73.866,15.73 Z M80.106,17.29 L78.286,17.29 L78.286,0.39 L80.106,0.39 L85.748,13.39 L85.748,0.39 L87.568,0.39 L87.568,17.29 L85.748,17.29 L80.106,4.29 L80.106,17.29 Z M96.226,10.27 L96.226,8.71 L100.958,8.71 L100.958,17.29 L100.178,17.29 L99.502,15.626 C99.1379982,16.2500031 98.6613363,16.7483315 98.072,17.121 C97.4826637,17.4936685 96.8413368,17.68 96.148,17.68 C93.6346541,17.68 92.378,16.4666788 92.378,14.04 L92.378,3.64 C92.378,2.47866086 92.7333298,1.58166983 93.444,0.949 C94.1546702,0.31633017 95.2206596,0 96.642,0 C98.0633404,0 99.1379964,0.31633017 99.866,0.949 C100.594004,1.58166983 100.958,2.47866086 100.958,3.64 L100.958,5.07 L99.138,5.07 L99.138,3.64 C99.138,2.2533264 98.3146749,1.56 96.668,1.56 C95.0213251,1.56 94.198,2.2533264 94.198,3.64 L94.198,14.04 C94.198,14.69867 94.3366653,15.2099982 94.614,15.574 C94.8913347,15.9380018 95.3983296,16.12 96.135,16.12 C96.8716704,16.12 97.5563302,15.8253363 98.189,15.236 C98.8216698,14.6466637 99.138,14.0746694 99.138,13.52 L99.138,10.27 L96.226,10.27 Z M118.118,14.04 L118.118,12.61 L119.938,12.61 L119.938,14.04 C119.938,15.2013391 119.58267,16.0983302 118.872,16.731 C118.16133,17.3636698 117.09534,17.68 115.674,17.68 C114.25266,17.68 113.178004,17.3636698 112.45,16.731 C111.721996,16.0983302 111.358,15.2013391 111.358,14.04 L111.358,3.64 C111.358,2.47866086 111.71333,1.58166983 112.424,0.949 C113.13467,0.31633017 114.20066,0 115.622,0 C117.04334,0 118.117996,0.31633017 118.846,0.949 C119.574004,1.58166983 119.938,2.47866086 119.938,3.64 L119.938,6.11 L118.118,6.11 L118.118,3.64 C118.118,2.2533264 117.294675,1.56 115.648,1.56 C114.001325,1.56 113.178,2.2533264 113.178,3.64 L113.178,14.04 C113.178,15.4266736 114.001325,16.12 115.648,16.12 C117.294675,16.12 118.118,15.4266736 118.118,14.04 Z M128.128,15.73 L128.128,17.29 L123.708,17.29 L123.708,15.73 L125.008,15.73 L125.008,1.95 L123.708,1.95 L123.708,0.39 L128.128,0.39 L128.128,1.95 L126.828,1.95 L126.828,15.73 L128.128,15.73 Z M134.368,17.29 L132.548,17.29 L132.548,0.39 L136.474,0.39 C137.826007,0.39 138.852996,0.71066346 139.555,1.352 C140.257004,1.99333654 140.608,2.88599428 140.608,4.03 L140.608,7.67 C140.608,9.43800884 139.845341,10.5646642 138.32,11.05 L141.518,17.29 L139.516,17.29 L136.474,11.31 L134.368,11.31 L134.368,17.29 Z M138.788,7.67 L138.788,4.03 C138.788,3.37133004 138.588669,2.86000182 138.19,2.496 C137.791331,2.13199818 137.219337,1.95 136.474,1.95 L134.368,1.95 L134.368,9.75 L136.474,9.75 C138.016674,9.75 138.788,9.0566736 138.788,7.67 Z M151.528,14.04 L151.528,12.61 L153.348,12.61 L153.348,14.04 C153.348,15.2013391 152.99267,16.0983302 152.282,16.731 C151.57133,17.3636698 150.50534,17.68 149.084,17.68 C147.66266,17.68 146.588004,17.3636698 145.86,16.731 C145.131996,16.0983302 144.768,15.2013391 144.768,14.04 L144.768,3.64 C144.768,2.47866086 145.12333,1.58166983 145.834,0.949 C146.54467,0.31633017 147.61066,0 149.032,0 C150.45334,0 151.527996,0.31633017 152.256,0.949 C152.984004,1.58166983 153.348,2.47866086 153.348,3.64 L153.348,6.11 L151.528,6.11 L151.528,3.64 C151.528,2.2533264 150.704675,1.56 149.058,1.56 C147.411325,1.56 146.588,2.2533264 146.588,3.64 L146.588,14.04 C146.588,15.4266736 147.411325,16.12 149.058,16.12 C150.704675,16.12 151.528,15.4266736 151.528,14.04 Z M164.658,14.04 L164.658,0.39 L166.478,0.39 L166.478,14.04 C166.478,15.2013391 166.10967,16.0983302 165.373,16.731 C164.63633,17.3636698 163.535674,17.68 162.071,17.68 C160.606326,17.68 159.501337,17.3636698 158.756,16.731 C158.010663,16.0983302 157.638,15.2013391 157.638,14.04 L157.638,0.39 L159.458,0.39 L159.458,14.04 C159.458,15.4266736 160.324658,16.12 162.058,16.12 C163.791342,16.12 164.658,15.4266736 164.658,14.04 Z M179.686,14.04 C179.686,16.4666788 178.221348,17.68 175.292,17.68 C172.362652,17.68 170.898,16.4666788 170.898,14.04 L170.898,11.83 L172.718,11.83 L172.718,14.144 C172.718,14.7680031 172.934665,15.2533316 173.368,15.6 C173.801335,15.9466684 174.442662,16.12 175.292,16.12 C176.141338,16.12 176.782665,15.9466684 177.216,15.6 C177.649336,15.2533316 177.866,14.781003 177.866,14.183 C177.866,13.584997 177.801001,13.1083351 177.671,12.753 C177.540999,12.3976649 177.276669,12.0206687 176.878,11.622 L172.302,7.15 C171.764664,6.61266398 171.396334,6.08833589 171.197,5.577 C170.997666,5.06566411 170.898,4.4200039 170.898,3.64 C170.898,2.47866086 171.257663,1.58166983 171.977,0.949 C172.696337,0.31633017 173.783993,0 175.24,0 C178.030681,0 179.426,1.2133212 179.426,3.64 L179.426,5.85 L177.606,5.85 L177.606,3.536 C177.606,2.91199688 177.402335,2.4266684 176.995,2.08 C176.587665,1.7333316 175.976671,1.56 175.162,1.56 C174.347329,1.56 173.736335,1.7333316 173.329,2.08 C172.921665,2.4266684 172.718,2.9033303 172.718,3.51 C172.718,4.1166697 172.778666,4.5933316 172.9,4.94 C173.021334,5.2866684 173.289998,5.65066476 173.706,6.032 L178.36,10.504 C178.862669,11.0586694 179.209332,11.5916641 179.4,12.103 C179.590668,12.6143359 179.686,13.2599961 179.686,14.04 Z" id="path-1"></path>
        <path d="M10.27,28.64 L10.27,39.04 C10.27,40.2013391 9.90167035,41.0983302 9.165,41.731 C8.42832965,42.3636698 7.32767399,42.68 5.863,42.68 C4.39832601,42.68 3.29333706,42.3636698 2.548,41.731 C1.80266294,41.0983302 1.43,40.2013391 1.43,39.04 L1.43,28.64 C1.43,27.4786609 1.79832965,26.5816698 2.535,25.949 C3.27167035,25.3163302 4.37232601,25 5.837,25 C7.30167399,25 8.40666294,25.3163302 9.152,25.949 C9.89733706,26.5816698 10.27,27.4786609 10.27,28.64 Z M8.45,39.04 L8.45,28.64 C8.45,27.2533264 7.583342,26.56 5.85,26.56 C4.116658,26.56 3.25,27.2533264 3.25,28.64 L3.25,39.04 C3.25,40.4266736 4.116658,41.12 5.85,41.12 C7.583342,41.12 8.45,40.4266736 8.45,39.04 Z M16.9,42.29 L15.08,42.29 L15.08,25.39 L22.23,25.39 L22.23,26.95 L16.9,26.95 L16.9,32.93 L21.19,32.93 L21.19,34.49 L16.9,34.49 L16.9,42.29 Z M38.61,39.04 L38.61,25.39 L40.43,25.39 L40.43,39.04 C40.43,40.2013391 40.0616703,41.0983302 39.325,41.731 C38.5883296,42.3636698 37.487674,42.68 36.023,42.68 C34.558326,42.68 33.4533371,42.3636698 32.708,41.731 C31.9626629,41.0983302 31.59,40.2013391 31.59,39.04 L31.59,25.39 L33.41,25.39 L33.41,39.04 C33.41,40.4266736 34.276658,41.12 36.01,41.12 C37.743342,41.12 38.61,40.4266736 38.61,39.04 Z M47.19,42.29 L45.37,42.29 L45.37,25.39 L49.296,25.39 C50.6480068,25.39 51.6749965,25.7106635 52.377,26.352 C53.0790035,26.9933365 53.43,27.8859943 53.43,29.03 L53.43,32.67 C53.43,34.4380088 52.667341,35.5646642 51.142,36.05 L54.34,42.29 L52.338,42.29 L49.296,36.31 L47.19,36.31 L47.19,42.29 Z M51.61,32.67 L51.61,29.03 C51.61,28.37133 51.4106687,27.8600018 51.012,27.496 C50.6133313,27.1319982 50.0413371,26.95 49.296,26.95 L47.19,26.95 L47.19,34.75 L49.296,34.75 C50.8386744,34.75 51.61,34.0566736 51.61,32.67 Z M57.98,25.39 L61.906,25.39 C63.2580068,25.39 64.2849965,25.7106635 64.987,26.352 C65.6890035,26.9933365 66.04,27.8859943 66.04,29.03 L66.04,30.59 C66.04,32.0633407 65.4246728,33.0079979 64.194,33.424 C65.598007,33.8053352 66.3,34.7673256 66.3,36.31 L66.3,38.65 C66.3,39.8113391 65.9533368,40.7083302 65.26,41.341 C64.5666632,41.9736698 63.5353402,42.29 62.166,42.29 L57.98,42.29 L57.98,25.39 Z M64.48,38.65 L64.48,36.31 C64.48,35.7553306 64.2720021,35.2483356 63.856,34.789 C63.4399979,34.3296644 62.8766702,34.1 62.166,34.1 L59.8,34.1 L59.8,40.73 L62.166,40.73 C62.8940036,40.73 63.4616646,40.5263354 63.869,40.119 C64.2763354,39.7116646 64.48,39.2220029 64.48,38.65 Z M64.22,30.59 L64.22,29.03 C64.22,28.4753306 64.0163354,27.9900021 63.609,27.574 C63.2016646,27.1579979 62.6340036,26.95 61.906,26.95 L59.8,26.95 L59.8,32.8 L61.906,32.8 C62.6340036,32.8 63.2016646,32.5746689 63.609,32.124 C64.0163354,31.6733311 64.22,31.1620029 64.22,30.59 Z M73.372,25.39 L76.102,25.39 L79.924,42.29 L78.104,42.29 L77.22,38.39 L72.254,38.39 L71.37,42.29 L69.55,42.29 L73.372,25.39 Z M74.724,27.418 L72.592,36.83 L76.856,36.83 L74.724,27.418 Z M85.384,42.29 L83.564,42.29 L83.564,25.39 L85.384,25.39 L91.026,38.39 L91.026,25.39 L92.846,25.39 L92.846,42.29 L91.026,42.29 L85.384,29.29 L85.384,42.29 Z M101.686,40.73 L101.686,42.29 L97.266,42.29 L97.266,40.73 L98.566,40.73 L98.566,26.95 L97.266,26.95 L97.266,25.39 L101.686,25.39 L101.686,26.95 L100.386,26.95 L100.386,40.73 L101.686,40.73 Z M114.374,39.04 C114.374,41.4666788 112.909348,42.68 109.98,42.68 C107.050652,42.68 105.586,41.4666788 105.586,39.04 L105.586,36.83 L107.406,36.83 L107.406,39.144 C107.406,39.7680031 107.622665,40.2533316 108.056,40.6 C108.489336,40.9466684 109.130662,41.12 109.98,41.12 C110.829338,41.12 111.470664,40.9466684 111.904,40.6 C112.337335,40.2533316 112.554,39.781003 112.554,39.183 C112.554,38.584997 112.489001,38.1083351 112.359,37.753 C112.228999,37.3976649 111.964669,37.0206687 111.566,36.622 L106.99,32.15 C106.452664,31.612664 106.084334,31.0883359 105.885,30.577 C105.685666,30.0656641 105.586,29.4200039 105.586,28.64 C105.586,27.4786609 105.945663,26.5816698 106.665,25.949 C107.384337,25.3163302 108.471993,25 109.928,25 C112.718681,25 114.114,26.2133212 114.114,28.64 L114.114,30.85 L112.294,30.85 L112.294,28.536 C112.294,27.9119969 112.090335,27.4266684 111.683,27.08 C111.275665,26.7333316 110.664671,26.56 109.85,26.56 C109.035329,26.56 108.424335,26.7333316 108.017,27.08 C107.609665,27.4266684 107.406,27.9033303 107.406,28.51 C107.406,29.1166697 107.466666,29.5933316 107.588,29.94 C107.709334,30.2866684 107.977998,30.6506648 108.394,31.032 L113.048,35.504 C113.550669,36.0586694 113.897332,36.5916641 114.088,37.103 C114.278668,37.6143359 114.374,38.2599961 114.374,39.04 Z M120.874,42.29 L119.054,42.29 L119.054,25.39 L121.784,25.39 L124.748,36.544 L127.738,25.39 L130.468,25.39 L130.468,42.29 L128.648,42.29 L128.648,28.302 L125.606,39.69 L123.916,39.69 L120.874,28.302 L120.874,42.29 Z" id="path-2"></path>
    </defs>
    <g id="Page-1" stroke="none" stroke-width="1" fill="none" fill-rule="evenodd">
        <g id="Group" transform="translate(0.780000, 0.710000)" fill-rule="nonzero">
            <g id="TRAVELINGCIRCUS">
                <use fill="#000000" xlink:href="#path-1"></use>
                <use stroke="#02ADCC" stroke-width="1" fill="#02ADCC" xlink:href="#path-1"></use>
            </g>
            <g id="OFURBANISM">
                <use fill="#000000" xlink:href="#path-2"></use>
                <use stroke="#02ADCC" stroke-width="1" fill="#02ADCC" xlink:href="#path-2"></use>
            </g>
        </g>
    </g>
</svg>