<?xml version="1.0" encoding="UTF-8"?>
<svg width="16px" height="12px" viewBox="0 0 16 12" version="1.1" xmlns="http://www.w3.org/2000/svg" xmlns:xlink="http://www.w3.org/1999/xlink">
    <!-- Generator: Sketch 51.3 (57544) - http://www.bohemiancoding.com/sketch -->
    <title>Group</title>
    <desc>Created with Sketch.</desc>
    <defs></defs>
    <g id="Page-1" stroke="none" stroke-width="1" fill="none" fill-rule="evenodd">
        <g id="Group" transform="translate(1.000000, 1.000000)" fill="#FFFFFF" fill-rule="nonzero" stroke="#FFFFFF" stroke-width="0.3">
            <path d="M13.5,10.15 L0.5,10.15 C0.141157288,10.15 -0.15,9.85884271 -0.15,9.5 L-0.15,0.5 C-0.15,0.141157288 0.141157288,-0.15 0.5,-0.15 L13.5,-0.15 C13.8588427,-0.15 14.15,0.141157288 14.15,0.5 L14.15,9.5 C14.15,9.85884271 13.8588427,10.15 13.5,10.15 Z M1.15,8.85 L12.85,8.85 L12.85,1.15 L1.15,1.15 L1.15,8.85 Z" id="Shape"></path>
            <path d="M6.99999502,4.78379745 L13.2277256,1.90953791 C13.554621,1.76035945 13.9381355,1.90192786 14.0902736,2.22831416 C14.2398847,2.55355565 14.0979526,2.9403507 13.7728587,3.09119391 L7.26958345,6.09265832 C7.18318478,6.13005476 7.09097891,6.15 7,6.15 C6.90764521,6.15 6.81449042,6.12944627 6.72814127,6.09019391 L0.228072479,3.09016214 C-0.0981619965,2.93939242 -0.240994361,2.55314152 -0.0901621354,2.22807248 C0.06020542,1.9027082 0.445557526,1.76101102 0.771849116,1.90980166 L6.99999502,4.78379745 Z" id="Shape"></path>
        </g>
    </g>
</svg>