<?xml version="1.0" encoding="UTF-8"?>
<svg width="419px" height="26px" viewBox="0 0 419 26" version="1.1" xmlns="http://www.w3.org/2000/svg" xmlns:xlink="http://www.w3.org/1999/xlink">
    <!-- Generator: Sketch 56.3 (81716) - https://sketch.com -->
    <title>TRAVELINGCIRCUSOFURBANISM</title>
    <desc>Created with Sketch.</desc>
    <g id="Page-1" stroke="none" stroke-width="1" fill="none" fill-rule="evenodd">
        <g id="logo" transform="translate(0.000000, -7.000000)" fill="#FFFFFF" fill-rule="nonzero" stroke="#FFFFFF">
            <path d="M12.24,8.9 L12.24,10.94 L7.82,10.94 L7.82,31 L5.44,31 L5.44,10.94 L1.02,10.94 L1.02,8.9 L12.24,8.9 Z M19.04,31 L16.66,31 L16.66,8.9 L21.794,8.9 C23.5620088,8.9 24.9049954,9.31932914 25.823,10.158 C26.7410046,10.9966709 27.2,12.1639925 27.2,13.66 L27.2,18.42 C27.2,20.7320116 26.2026766,22.2053302 24.208,22.84 L28.39,31 L25.772,31 L21.794,23.18 L19.04,23.18 L19.04,31 Z M24.82,18.42 L24.82,13.66 C24.82,12.7986624 24.5593359,12.1300024 24.038,11.654 C23.5166641,11.1779976 22.7686715,10.94 21.794,10.94 L19.04,10.94 L19.04,21.14 L21.794,21.14 C23.8113434,21.14 24.82,20.2333424 24.82,18.42 Z M36.108,8.9 L39.678,8.9 L44.676,31 L42.296,31 L41.14,25.9 L34.646,25.9 L33.49,31 L31.11,31 L36.108,8.9 Z M37.876,11.552 L35.088,23.86 L40.664,23.86 L37.876,11.552 Z M55.284,31 L51.714,31 L46.716,8.9 L49.096,8.9 L53.482,28.382 L57.902,8.9 L60.282,8.9 L55.284,31 Z M75.072,31 L65.042,31 L65.042,8.9 L74.732,8.9 L74.732,10.94 L67.422,10.94 L67.422,18.76 L73.372,18.76 L73.372,20.8 L67.422,20.8 L67.422,28.96 L75.072,28.96 L75.072,31 Z M80.172,31 L80.172,8.9 L82.552,8.9 L82.552,28.96 L88.774,28.96 L88.774,31 L80.172,31 Z M97.614,28.96 L97.614,31 L91.834,31 L91.834,28.96 L93.534,28.96 L93.534,10.94 L91.834,10.94 L91.834,8.9 L97.614,8.9 L97.614,10.94 L95.914,10.94 L95.914,28.96 L97.614,28.96 Z M105.774,31 L103.394,31 L103.394,8.9 L105.774,8.9 L113.152,25.9 L113.152,8.9 L115.532,8.9 L115.532,31 L113.152,31 L105.774,14 L105.774,31 Z M126.854,21.82 L126.854,19.78 L133.042,19.78 L133.042,31 L132.022,31 L131.138,28.824 C130.661998,29.6400041 130.038671,30.2916642 129.268,30.779 C128.497329,31.2663358 127.658671,31.51 126.752,31.51 C123.465317,31.51 121.822,29.9233492 121.822,26.75 L121.822,13.15 C121.822,11.6313257 122.286662,10.4583375 123.216,9.631 C124.145338,8.80366253 125.539324,8.39 127.398,8.39 C129.256676,8.39 130.661995,8.80366253 131.614,9.631 C132.566005,10.4583375 133.042,11.6313257 133.042,13.15 L133.042,15.02 L130.662,15.02 L130.662,13.15 C130.662,11.3366576 129.585344,10.43 127.432,10.43 C125.278656,10.43 124.202,11.3366576 124.202,13.15 L124.202,26.75 C124.202,27.6113376 124.383332,28.2799976 124.746,28.756 C125.108668,29.2320024 125.771662,29.47 126.735,29.47 C127.698338,29.47 128.593663,29.0846705 129.421,28.314 C130.248337,27.5433295 130.662,26.795337 130.662,26.07 L130.662,21.82 L126.854,21.82 Z M155.482,26.75 L155.482,24.88 L157.862,24.88 L157.862,26.75 C157.862,28.2686743 157.397338,29.4416625 156.468,30.269 C155.538662,31.0963375 154.144676,31.51 152.286,31.51 C150.427324,31.51 149.022005,31.0963375 148.07,30.269 C147.117995,29.4416625 146.642,28.2686743 146.642,26.75 L146.642,13.15 C146.642,11.6313257 147.106662,10.4583375 148.036,9.631 C148.965338,8.80366253 150.359324,8.39 152.218,8.39 C154.076676,8.39 155.481995,8.80366253 156.434,9.631 C157.386005,10.4583375 157.862,11.6313257 157.862,13.15 L157.862,16.38 L155.482,16.38 L155.482,13.15 C155.482,11.3366576 154.405344,10.43 152.252,10.43 C150.098656,10.43 149.022,11.3366576 149.022,13.15 L149.022,26.75 C149.022,28.5633424 150.098656,29.47 152.252,29.47 C154.405344,29.47 155.482,28.5633424 155.482,26.75 Z M168.572,28.96 L168.572,31 L162.792,31 L162.792,28.96 L164.492,28.96 L164.492,10.94 L162.792,10.94 L162.792,8.9 L168.572,8.9 L168.572,10.94 L166.872,10.94 L166.872,28.96 L168.572,28.96 Z M176.732,31 L174.352,31 L174.352,8.9 L179.486,8.9 C181.254009,8.9 182.596995,9.31932914 183.515,10.158 C184.433005,10.9966709 184.892,12.1639925 184.892,13.66 L184.892,18.42 C184.892,20.7320116 183.894677,22.2053302 181.9,22.84 L186.082,31 L183.464,31 L179.486,23.18 L176.732,23.18 L176.732,31 Z M182.512,18.42 L182.512,13.66 C182.512,12.7986624 182.251336,12.1300024 181.73,11.654 C181.208664,11.1779976 180.460672,10.94 179.486,10.94 L176.732,10.94 L176.732,21.14 L179.486,21.14 C181.503343,21.14 182.512,20.2333424 182.512,18.42 Z M199.172,26.75 L199.172,24.88 L201.552,24.88 L201.552,26.75 C201.552,28.2686743 201.087338,29.4416625 200.158,30.269 C199.228662,31.0963375 197.834676,31.51 195.976,31.51 C194.117324,31.51 192.712005,31.0963375 191.76,30.269 C190.807995,29.4416625 190.332,28.2686743 190.332,26.75 L190.332,13.15 C190.332,11.6313257 190.796662,10.4583375 191.726,9.631 C192.655338,8.80366253 194.049324,8.39 195.908,8.39 C197.766676,8.39 199.171995,8.80366253 200.124,9.631 C201.076005,10.4583375 201.552,11.6313257 201.552,13.15 L201.552,16.38 L199.172,16.38 L199.172,13.15 C199.172,11.3366576 198.095344,10.43 195.942,10.43 C193.788656,10.43 192.712,11.3366576 192.712,13.15 L192.712,26.75 C192.712,28.5633424 193.788656,29.47 195.942,29.47 C198.095344,29.47 199.172,28.5633424 199.172,26.75 Z M216.342,26.75 L216.342,8.9 L218.722,8.9 L218.722,26.75 C218.722,28.2686743 218.240338,29.4416625 217.277,30.269 C216.313662,31.0963375 214.874343,31.51 212.959,31.51 C211.043657,31.51 209.598672,31.0963375 208.624,30.269 C207.649328,29.4416625 207.162,28.2686743 207.162,26.75 L207.162,8.9 L209.542,8.9 L209.542,26.75 C209.542,28.5633424 210.675322,29.47 212.942,29.47 C215.208678,29.47 216.342,28.5633424 216.342,26.75 Z M235.994,26.75 C235.994,29.9233492 234.078686,31.51 230.248,31.51 C226.417314,31.51 224.502,29.9233492 224.502,26.75 L224.502,23.86 L226.882,23.86 L226.882,26.886 C226.882,27.7020041 227.165331,28.3366644 227.732,28.79 C228.29867,29.2433356 229.137328,29.47 230.248,29.47 C231.358672,29.47 232.197331,29.2433356 232.764,28.79 C233.33067,28.3366644 233.614,27.7190039 233.614,26.937 C233.614,26.1549961 233.529001,25.531669 233.359,25.067 C233.188999,24.602331 232.843336,24.1093359 232.322,23.588 L226.338,17.74 C225.63533,17.0373298 225.153668,16.35167 224.893,15.683 C224.632332,15.01433 224.502,14.1700051 224.502,13.15 C224.502,11.6313257 224.972329,10.4583375 225.913,9.631 C226.853671,8.80366253 228.27599,8.39 230.18,8.39 C233.829352,8.39 235.654,9.9766508 235.654,13.15 L235.654,16.04 L233.274,16.04 L233.274,13.014 C233.274,12.1979959 233.007669,11.5633356 232.475,11.11 C231.942331,10.6566644 231.143339,10.43 230.078,10.43 C229.012661,10.43 228.213669,10.6566644 227.681,11.11 C227.148331,11.5633356 226.882,12.1866627 226.882,12.98 C226.882,13.7733373 226.961333,14.3966644 227.12,14.85 C227.278667,15.3033356 227.629997,15.7793308 228.174,16.278 L234.26,22.126 C234.917337,22.851337 235.370665,23.54833 235.62,24.217 C235.869335,24.88567 235.994,25.7299949 235.994,26.75 Z M260.984,13.15 L260.984,26.75 C260.984,28.2686743 260.502338,29.4416625 259.539,30.269 C258.575662,31.0963375 257.136343,31.51 255.221,31.51 C253.305657,31.51 251.860672,31.0963375 250.886,30.269 C249.911328,29.4416625 249.424,28.2686743 249.424,26.75 L249.424,13.15 C249.424,11.6313257 249.905662,10.4583375 250.869,9.631 C251.832338,8.80366253 253.271657,8.39 255.187,8.39 C257.102343,8.39 258.547328,8.80366253 259.522,9.631 C260.496672,10.4583375 260.984,11.6313257 260.984,13.15 Z M258.604,26.75 L258.604,13.15 C258.604,11.3366576 257.470678,10.43 255.204,10.43 C252.937322,10.43 251.804,11.3366576 251.804,13.15 L251.804,26.75 C251.804,28.5633424 252.937322,29.47 255.204,29.47 C257.470678,29.47 258.604,28.5633424 258.604,26.75 Z M269.654,31 L267.274,31 L267.274,8.9 L276.624,8.9 L276.624,10.94 L269.654,10.94 L269.654,18.76 L275.264,18.76 L275.264,20.8 L269.654,20.8 L269.654,31 Z M298.044,26.75 L298.044,8.9 L300.424,8.9 L300.424,26.75 C300.424,28.2686743 299.942338,29.4416625 298.979,30.269 C298.015662,31.0963375 296.576343,31.51 294.661,31.51 C292.745657,31.51 291.300672,31.0963375 290.326,30.269 C289.351328,29.4416625 288.864,28.2686743 288.864,26.75 L288.864,8.9 L291.244,8.9 L291.244,26.75 C291.244,28.5633424 292.377322,29.47 294.644,29.47 C296.910678,29.47 298.044,28.5633424 298.044,26.75 Z M309.264,31 L306.884,31 L306.884,8.9 L312.018,8.9 C313.786009,8.9 315.128995,9.31932914 316.047,10.158 C316.965005,10.9966709 317.424,12.1639925 317.424,13.66 L317.424,18.42 C317.424,20.7320116 316.426677,22.2053302 314.432,22.84 L318.614,31 L315.996,31 L312.018,23.18 L309.264,23.18 L309.264,31 Z M315.044,18.42 L315.044,13.66 C315.044,12.7986624 314.783336,12.1300024 314.262,11.654 C313.740664,11.1779976 312.992672,10.94 312.018,10.94 L309.264,10.94 L309.264,21.14 L312.018,21.14 C314.035343,21.14 315.044,20.2333424 315.044,18.42 Z M323.374,8.9 L328.508,8.9 C330.276009,8.9 331.618995,9.31932914 332.537,10.158 C333.455005,10.9966709 333.914,12.1639925 333.914,13.66 L333.914,15.7 C333.914,17.6266763 333.109341,18.8619973 331.5,19.406 C333.336009,19.9046692 334.254,21.1626566 334.254,23.18 L334.254,26.24 C334.254,27.7586743 333.800671,28.9316625 332.894,29.759 C331.987329,30.5863375 330.638676,31 328.848,31 L323.374,31 L323.374,8.9 Z M331.874,26.24 L331.874,23.18 C331.874,22.454663 331.602003,21.7916697 331.058,21.191 C330.513997,20.5903303 329.777338,20.29 328.848,20.29 L325.754,20.29 L325.754,28.96 L328.848,28.96 C329.800005,28.96 330.542331,28.6936693 331.075,28.161 C331.607669,27.6283307 331.874,26.9880037 331.874,26.24 Z M331.534,15.7 L331.534,13.66 C331.534,12.934663 331.267669,12.3000027 330.735,11.756 C330.202331,11.2119973 329.460005,10.94 328.508,10.94 L325.754,10.94 L325.754,18.59 L328.508,18.59 C329.460005,18.59 330.202331,18.2953363 330.735,17.706 C331.267669,17.1166637 331.534,16.4480037 331.534,15.7 Z M343.502,8.9 L347.072,8.9 L352.07,31 L349.69,31 L348.534,25.9 L342.04,25.9 L340.884,31 L338.504,31 L343.502,8.9 Z M345.27,11.552 L342.482,23.86 L348.058,23.86 L345.27,11.552 Z M359.21,31 L356.83,31 L356.83,8.9 L359.21,8.9 L366.588,25.9 L366.588,8.9 L368.968,8.9 L368.968,31 L366.588,31 L359.21,14 L359.21,31 Z M380.528,28.96 L380.528,31 L374.748,31 L374.748,28.96 L376.448,28.96 L376.448,10.94 L374.748,10.94 L374.748,8.9 L380.528,8.9 L380.528,10.94 L378.828,10.94 L378.828,28.96 L380.528,28.96 Z M397.12,26.75 C397.12,29.9233492 395.204686,31.51 391.374,31.51 C387.543314,31.51 385.628,29.9233492 385.628,26.75 L385.628,23.86 L388.008,23.86 L388.008,26.886 C388.008,27.7020041 388.291331,28.3366644 388.858,28.79 C389.42467,29.2433356 390.263328,29.47 391.374,29.47 C392.484672,29.47 393.323331,29.2433356 393.89,28.79 C394.45667,28.3366644 394.74,27.7190039 394.74,26.937 C394.74,26.1549961 394.655001,25.531669 394.485,25.067 C394.314999,24.602331 393.969336,24.1093359 393.448,23.588 L387.464,17.74 C386.76133,17.0373298 386.279668,16.35167 386.019,15.683 C385.758332,15.01433 385.628,14.1700051 385.628,13.15 C385.628,11.6313257 386.098329,10.4583375 387.039,9.631 C387.979671,8.80366253 389.40199,8.39 391.306,8.39 C394.955352,8.39 396.78,9.9766508 396.78,13.15 L396.78,16.04 L394.4,16.04 L394.4,13.014 C394.4,12.1979959 394.133669,11.5633356 393.601,11.11 C393.068331,10.6566644 392.269339,10.43 391.204,10.43 C390.138661,10.43 389.339669,10.6566644 388.807,11.11 C388.274331,11.5633356 388.008,12.1866627 388.008,12.98 C388.008,13.7733373 388.087333,14.3966644 388.246,14.85 C388.404667,15.3033356 388.755997,15.7793308 389.3,16.278 L395.386,22.126 C396.043337,22.851337 396.496665,23.54833 396.746,24.217 C396.995335,24.88567 397.12,25.7299949 397.12,26.75 Z M405.62,31 L403.24,31 L403.24,8.9 L406.81,8.9 L410.686,23.486 L414.596,8.9 L418.166,8.9 L418.166,31 L415.786,31 L415.786,12.708 L411.808,27.6 L409.598,27.6 L405.62,12.708 L405.62,31 Z" id="TRAVELINGCIRCUSOFURBANISM"></path>
        </g>
    </g>
</svg>